<svg xmlns="http://www.w3.org/2000/svg" width="81.027" height="71.284" viewBox="0 0 81.027 71.284">
  <g id="Group_5770" data-name="Group 5770" transform="translate(-281.848 -217.22)">
    <path id="Path_980" data-name="Path 980" d="M329.3,240.208a9.077,9.077,0,1,1,9.077-9.079A9.089,9.089,0,0,1,329.3,240.208Zm0-16.52a7.443,7.443,0,1,0,7.443,7.442A7.452,7.452,0,0,0,329.3,223.688Z" transform="translate(24.001 2.747)" fill="#fff" stroke="#fff" stroke-width="1"/>
    <path id="Path_981" data-name="Path 981" d="M291.425,240.208a9.077,9.077,0,1,1,9.077-9.079A9.089,9.089,0,0,1,291.425,240.208Zm0-16.52a7.443,7.443,0,1,0,7.443,7.442A7.452,7.452,0,0,0,291.425,223.688Z" transform="translate(0 2.747)" fill="#fff" stroke="#fff" stroke-width="1"/>
    <path id="Path_982" data-name="Path 982" d="M313.5,245.811l-5.965-5.963-10.552-.193V217.72H329.4v21.949H318.6Zm-14.883-7.76,9.608.175,5.163,5.164,4.45-5.354h9.928V219.354H298.615Z" transform="translate(9.274)" fill="#fff" stroke="#fff" stroke-width="1"/>
    <path id="Path_983" data-name="Path 983" d="M316.516,276.74h-1.634V262.22a4.567,4.567,0,0,1,4.561-4.561H321.6a2.007,2.007,0,0,0,2-2.006V244.571a9.077,9.077,0,1,1,18.154,0v11.237a11.09,11.09,0,0,1-11.077,11.077h-8.312v-1.634h8.313a9.454,9.454,0,0,0,9.443-9.443V244.571a7.443,7.443,0,0,0-14.887,0v11.082a3.643,3.643,0,0,1-3.638,3.64h-2.155a2.93,2.93,0,0,0-2.928,2.928Z" transform="translate(20.618 11.264)" fill="#fff" stroke="#fff" stroke-width="1"/>
    <path id="Path_984" data-name="Path 984" d="M309.225,276.74h-1.634V262.22a2.932,2.932,0,0,0-2.929-2.928h-2.155a3.643,3.643,0,0,1-3.638-3.64V244.571a7.443,7.443,0,0,0-14.887,0v11.237a9.454,9.454,0,0,0,9.445,9.443h8.311v1.634h-8.311a11.091,11.091,0,0,1-11.078-11.077V244.571a9.077,9.077,0,1,1,18.154,0v11.082a2.008,2.008,0,0,0,2,2.006h2.155a4.567,4.567,0,0,1,4.563,4.561Z" transform="translate(0 11.264)" fill="#fff" stroke="#fff" stroke-width="1"/>
  </g>
</svg>
