<svg xmlns="http://www.w3.org/2000/svg" width="71.081" height="71.081" viewBox="0 0 71.081 71.081">
  <g id="Group_5771" data-name="Group 5771" transform="translate(-501.555 -52.27)">
    <path id="Path_985" data-name="Path 985" d="M571.3,122.851H502.888a.832.832,0,0,1-.833-.833V53.6a.832.832,0,0,1,.833-.833H571.3a.833.833,0,0,1,.833.833v68.415A.833.833,0,0,1,571.3,122.851Zm-67.583-1.665h66.75V54.435H503.72Z" transform="translate(0 0)" fill="#fff" stroke="#fff" stroke-width="1"/>
    <path id="Path_986" data-name="Path 986" d="M571.3,58.485H502.888a.833.833,0,1,1,0-1.665H571.3a.833.833,0,1,1,0,1.665Z" transform="translate(0 2.694)" fill="#fff" stroke="#fff" stroke-width="1"/>
    <path id="Path_987" data-name="Path 987" d="M559.273,61.005H508.468a.833.833,0,1,1,0-1.665h50.806a.833.833,0,1,1,0,1.665Z" transform="translate(3.712 4.37)" fill="#fff" stroke="#fff" stroke-width="1"/>
    <path id="Path_988" data-name="Path 988" d="M521.007,65.145H508.468a.833.833,0,1,1,0-1.665h12.539a.833.833,0,1,1,0,1.665Z" transform="translate(3.712 7.124)" fill="#fff" stroke="#fff" stroke-width="1"/>
    <path id="Path_989" data-name="Path 989" d="M521.007,69.945H508.468a.833.833,0,1,1,0-1.665h12.539a.833.833,0,1,1,0,1.665Z" transform="translate(3.712 10.318)" fill="#fff" stroke="#fff" stroke-width="1"/>
    <path id="Path_990" data-name="Path 990" d="M521.007,74.978H508.468a.833.833,0,0,1,0-1.665h12.539a.833.833,0,1,1,0,1.665Z" transform="translate(3.712 13.666)" fill="#fff" stroke="#fff" stroke-width="1"/>
    <path id="Path_991" data-name="Path 991" d="M547.249,87.059h-3a.833.833,0,0,1,0-1.665h2.165V80.265H514.609v4.729h13.057a.833.833,0,1,1,0,1.665h-13.89a.833.833,0,0,1-.833-.833V79.433a.833.833,0,0,1,.833-.833h33.473a.833.833,0,0,1,.833.833v6.794A.832.832,0,0,1,547.249,87.059Z" transform="translate(7.244 17.183)" fill="#fff" stroke="#fff" stroke-width="1"/>
    <path id="Path_992" data-name="Path 992" d="M552.469,69.4H518.7a.832.832,0,0,1-.833-.833v-5.1a.833.833,0,0,1,.833-.833h33.772a.833.833,0,0,1,.833.833v5.1A.832.832,0,0,1,552.469,69.4Zm-32.94-1.665h32.107v-3.43H519.529Z" transform="translate(10.516 6.566)" fill="#fff" stroke="#fff" stroke-width="1"/>
    <path id="Path_993" data-name="Path 993" d="M552.469,74.411H518.7a.833.833,0,0,1-.833-.833v-5.1a.833.833,0,0,1,.833-.833h33.772a.833.833,0,0,1,.833.833v5.1A.833.833,0,0,1,552.469,74.411Zm-32.94-1.665h32.107v-3.43H519.529Z" transform="translate(10.516 9.898)" fill="#fff" stroke="#fff" stroke-width="1"/>
    <path id="Path_994" data-name="Path 994" d="M552.469,79.421H518.7a.832.832,0,0,1-.833-.833v-5.1a.833.833,0,0,1,.833-.833h33.772a.833.833,0,0,1,.833.833v5.1A.832.832,0,0,1,552.469,79.421Zm-32.94-1.665h32.107v-3.43H519.529Z" transform="translate(10.516 13.231)" fill="#fff" stroke="#fff" stroke-width="1"/>
    <rect id="Rectangle_1678" data-name="Rectangle 1678" width="1.499" height="1.499" transform="translate(553.793 56.15)" fill="#fff" stroke="#fff" stroke-width="1"/>
    <rect id="Rectangle_1679" data-name="Rectangle 1679" width="1.499" height="1.499" transform="translate(557.065 56.15)" fill="#fff" stroke="#fff" stroke-width="1"/>
    <rect id="Rectangle_1680" data-name="Rectangle 1680" width="1.499" height="1.499" transform="translate(560.312 56.15)" fill="#fff" stroke="#fff" stroke-width="1"/>
    <rect id="Rectangle_1681" data-name="Rectangle 1681" width="4.927" height="1.724" transform="translate(512.067 55.926)" fill="#fff" stroke="#fff" stroke-width="1"/>
    <path id="Path_995" data-name="Path 995" d="M555.024,92.325H502.888a.833.833,0,1,1,0-1.665h52.136a.833.833,0,0,1,0,1.665Z" transform="translate(0 25.205)" fill="#fff" stroke="#fff" stroke-width="1"/>
    <path id="Path_996" data-name="Path 996" d="M548.374,92.325H537.357a.833.833,0,0,1,0-1.665h11.017a.833.833,0,0,1,0,1.665Z" transform="translate(22.929 25.205)" fill="#fff" stroke="#fff" stroke-width="1"/>
    <path id="Path_997" data-name="Path 997" d="M527.662,87.185l-1.676,1.62-.917-6.169,6.261.871-1.668,1.7,4.89,4.263-1.877,1.994Z" transform="translate(15.31 19.867)" fill="#fff" stroke="#fff" stroke-width="1"/>
  </g>
</svg>
