<svg xmlns="http://www.w3.org/2000/svg" width="78.018" height="71.764" viewBox="0 0 78.018 71.764">
  <g id="Group_5773" data-name="Group 5773" transform="translate(-408.298 -3.941)">
    <path id="Path_1010" data-name="Path 1010" d="M444.062,56.517a.814.814,0,0,1-.543-1.419A7.406,7.406,0,0,0,446,49.643a22.875,22.875,0,1,1,17.711-3.4A72.875,72.875,0,0,1,444.3,56.48.822.822,0,0,1,444.062,56.517ZM450.9,6.071a21.239,21.239,0,0,0-3.962,42.1.811.811,0,0,1,.655.7,9,9,0,0,1-1.088,5.063,71.865,71.865,0,0,0,16.15-8.925l.146-.109a21.176,21.176,0,0,0,9.341-18.049A21.537,21.537,0,0,0,451.9,6.094Q451.4,6.072,450.9,6.071Z" transform="translate(12.042 0)" fill="#fff" stroke="#fff" stroke-width="1"/>
    <path id="Path_1011" data-name="Path 1011" d="M438.191,37.11a.827.827,0,1,1,.6-.252A.892.892,0,0,1,438.191,37.11Z" transform="translate(17.884 19.42)" fill="#fff" stroke="#fff" stroke-width="1"/>
    <circle id="Ellipse_228" data-name="Ellipse 228" cx="2.238" cy="2.238" r="2.238" transform="translate(451.665 26.337)" fill="#fff" stroke="#fff" stroke-width="1"/>
    <circle id="Ellipse_229" data-name="Ellipse 229" cx="2.238" cy="2.238" r="2.238" transform="translate(460.453 26.337)" fill="#fff" stroke="#fff" stroke-width="1"/>
    <circle id="Ellipse_230" data-name="Ellipse 230" cx="2.238" cy="2.238" r="2.238" transform="translate(469.242 26.337)" fill="#fff" stroke="#fff" stroke-width="1"/>
    <path id="Path_1012" data-name="Path 1012" d="M440.06,67.494a10.784,10.784,0,0,1-1.119-.057,10.573,10.573,0,0,1-7.37-4.115L411,36.528a10.681,10.681,0,0,1,1.465-14.545l5.162-4.488a2.975,2.975,0,0,1,4.3.411l7.305,9.323a2.993,2.993,0,0,1-.179,3.879l-4.987,5.274,11.261,14.5,4.011-3.193a2.978,2.978,0,0,1,4.192.486l7.491,9.508a2.97,2.97,0,0,1-.4,4.1l-3.632,3.13A10.551,10.551,0,0,1,440.06,67.494Zm-20.478-49.1a1.321,1.321,0,0,0-.881.332l-5.164,4.488a9.053,9.053,0,0,0-1.242,12.328L432.86,62.331a9.042,9.042,0,0,0,13.072,1.345l3.632-3.13a1.345,1.345,0,0,0,.179-1.858l-7.489-9.508a1.345,1.345,0,0,0-.907-.506,1.325,1.325,0,0,0-1,.285l-5.3,4.218L421.928,36.281l5.944-6.289a1.356,1.356,0,0,0,.081-1.759l-7.305-9.325a1.339,1.339,0,0,0-.935-.511A1.192,1.192,0,0,0,419.582,18.391Z" transform="translate(0 7.711)" fill="#fff" stroke="#fff" stroke-width="1"/>
    <rect id="Rectangle_1682" data-name="Rectangle 1682" width="1.625" height="16.821" transform="matrix(0.776, -0.631, 0.631, 0.776, 414.844, 28.238)" fill="#fff" stroke="#fff" stroke-width="1"/>
    <rect id="Rectangle_1683" data-name="Rectangle 1683" width="1.626" height="16.548" transform="translate(436.728 58.525) rotate(-38.952)" fill="#fff" stroke="#fff" stroke-width="1"/>
  </g>
</svg>
