<svg xmlns="http://www.w3.org/2000/svg" width="69.133" height="71.384" viewBox="0 0 69.133 71.384">
  <g id="Group_5772" data-name="Group 5772" transform="translate(-255.418 -50.937)">
    <path id="Path_998" data-name="Path 998" d="M296.135,76.2a.809.809,0,0,1-.809-.809c0-.1-.084-10.007-7.51-16.8a.81.81,0,0,1,1.093-1.2c7.944,7.266,8.034,17.557,8.034,17.992A.808.808,0,0,1,296.135,76.2Z" transform="translate(19.527 3.553)" fill="#fff" stroke="#fff" stroke-width="1"/>
    <path id="Path_999" data-name="Path 999" d="M261.437,76.193l-.029,0a.809.809,0,0,1-.78-.836c.016-.433.467-10.693,8.432-17.934a.809.809,0,0,1,1.088,1.2c-7.449,6.768-7.9,16.693-7.905,16.793A.808.808,0,0,1,261.437,76.193Z" transform="translate(2.907 3.565)" fill="#fff" stroke="#fff" stroke-width="1"/>
    <path id="Path_1000" data-name="Path 1000" d="M270.2,96.11H264a8.1,8.1,0,0,1-8.086-8.086V76.035A8.1,8.1,0,0,1,264,67.949h6.2a.808.808,0,0,1,.809.809V95.3A.808.808,0,0,1,270.2,96.11ZM264,69.566a6.475,6.475,0,0,0-6.469,6.469V88.024A6.475,6.475,0,0,0,264,94.493h5.39V69.566Z" transform="translate(0 10.191)" fill="#fff" stroke="#fff" stroke-width="1"/>
    <path id="Path_1001" data-name="Path 1001" d="M261.44,96.11a.808.808,0,0,1-.809-.809V68.758a.809.809,0,0,1,1.617,0V95.3A.807.807,0,0,1,261.44,96.11Z" transform="translate(2.909 10.191)" fill="#fff" stroke="#fff" stroke-width="1"/>
    <path id="Path_1002" data-name="Path 1002" d="M295.721,96.11h-6.2a.807.807,0,0,1-.809-.809V68.758a.807.807,0,0,1,.809-.809h6.2a8.1,8.1,0,0,1,8.086,8.086V88.024A8.1,8.1,0,0,1,295.721,96.11Zm-5.39-1.617h5.39a6.475,6.475,0,0,0,6.469-6.469V76.035a6.475,6.475,0,0,0-6.469-6.469h-5.39Z" transform="translate(20.243 10.191)" fill="#fff" stroke="#fff" stroke-width="1"/>
    <path id="Path_1003" data-name="Path 1003" d="M293.142,96.11a.808.808,0,0,1-.809-.809V68.758a.809.809,0,0,1,1.617,0V95.3A.808.808,0,0,1,293.142,96.11Z" transform="translate(22.477 10.191)" fill="#fff" stroke="#fff" stroke-width="1"/>
    <path id="Path_1004" data-name="Path 1004" d="M270.952,86.084a.809.809,0,0,1-.809-.809v-11.3a.809.809,0,1,1,1.617,0v11.3A.809.809,0,0,1,270.952,86.084Z" transform="translate(8.78 13.412)" fill="#fff" stroke="#fff" stroke-width="1"/>
    <path id="Path_1005" data-name="Path 1005" d="M283.914,86.084a.809.809,0,0,1-.809-.809v-11.3a.809.809,0,1,1,1.617,0v11.3A.808.808,0,0,1,283.914,86.084Z" transform="translate(16.781 13.412)" fill="#fff" stroke="#fff" stroke-width="1"/>
    <path id="Path_1006" data-name="Path 1006" d="M279.538,96.6a.808.808,0,0,1-.809-.809V69.516a.809.809,0,1,1,1.617,0V95.788A.809.809,0,0,1,279.538,96.6Z" transform="translate(14.08 10.659)" fill="#fff" stroke="#fff" stroke-width="1"/>
    <path id="Path_1007" data-name="Path 1007" d="M274.824,88.892a.808.808,0,0,1-.809-.809V72.293a.809.809,0,1,1,1.617,0V88.083A.809.809,0,0,1,274.824,88.892Z" transform="translate(11.17 12.373)" fill="#fff" stroke="#fff" stroke-width="1"/>
    <path id="Path_1008" data-name="Path 1008" d="M258.579,101.794a.808.808,0,0,1-.809-.809V84.692a.809.809,0,1,1,1.617,0v16.294A.809.809,0,0,1,258.579,101.794Z" transform="translate(1.143 20.026)" fill="#fff" stroke="#fff" stroke-width="1"/>
    <path id="Path_1009" data-name="Path 1009" d="M269.031,63.32A3.9,3.9,0,0,1,266.1,62a3.936,3.936,0,0,1,.809-5.906c3.5-2.271,9.49-4.926,18.2-4.629,9.479.311,14.984,3.624,17.421,5.571a3.347,3.347,0,0,1,1.252,2.322,3.478,3.478,0,0,1-.817,2.579,3.544,3.544,0,0,1-2.492,1.232,3.332,3.332,0,0,1-2.492-.906c-1.86-1.76-5.531-3.868-12.453-3.92-7.174-.074-11.646,2.232-14.114,4.16A3.86,3.86,0,0,1,269.031,63.32Zm14.786-10.265a29.057,29.057,0,0,0-16.03,4.391,2.317,2.317,0,0,0-.474,3.482h0a2.274,2.274,0,0,0,3.107.3c2.67-2.086,7.435-4.578,15.121-4.5,7.447.055,11.481,2.4,13.552,4.363a1.707,1.707,0,0,0,1.294.464,1.92,1.92,0,0,0,1.349-.666,1.83,1.83,0,0,0,.435-1.378,1.748,1.748,0,0,0-.65-1.211c-2.28-1.821-7.454-4.923-16.467-5.219C284.637,53.062,284.223,53.055,283.817,53.055Z" transform="translate(5.676 0)" fill="#fff" stroke="#fff" stroke-width="1"/>
  </g>
</svg>
