<svg xmlns="http://www.w3.org/2000/svg" width="69.438" height="70" viewBox="0 0 69.438 70">
  <g id="Group_5870" data-name="Group 5870" transform="translate(-1377.616 -265.974)">
    <path id="Path_1060" data-name="Path 1060" d="M1612.871,411.236l-.053.081a.579.579,0,0,1,.1-.059Z" transform="translate(-174.317 -107.642)" fill="#404040"/>
    <path id="Path_1061" data-name="Path 1061" d="M1521.535,356.434a.565.565,0,0,1-.114-.029v.029Z" transform="translate(-106.563 -67.011)" fill="#404040"/>
    <path id="Path_1062" data-name="Path 1062" d="M1381.173,398.294l-.01-8.085,14.355-.018.01,8.086a1.758,1.758,0,0,0,1.758,1.756h0A1.757,1.757,0,0,0,1398.88,399l.011.012a3.519,3.519,0,0,0,2.508,1.041h0a3.543,3.543,0,0,0,3.539-3.58l-.15-14.38a4.073,4.073,0,0,0-3.875-4.011,3.589,3.589,0,0,0,.538-.718l4.393-7.762a2.65,2.65,0,0,0-.427-3.159,4.888,4.888,0,0,0-1.829-9.421h-.006c-.143,0-.284.01-.424.022a.523.523,0,0,0-.037-.127l-.722-1.376a3.356,3.356,0,0,0,.013-.637,2.967,2.967,0,0,0-.473-1.434,2.8,2.8,0,0,0-1.875-1.166c-2.057-.409-2.969,1.275-3.571,2.389a4.93,4.93,0,0,1-.645,1.016,5.106,5.106,0,0,1-2.844.765.566.566,0,0,0-.3,1.048,10.472,10.472,0,0,0,4.582,1.589,3.145,3.145,0,0,0,1-.149,3.437,3.437,0,0,0,1.622-1.171l.286.609a4.887,4.887,0,0,0,1.486,8.013,2.637,2.637,0,0,0-.465.593l-2.726,4.911-.474-1.14.334-.568a5.343,5.343,0,0,0-4.626-8.014h-.007a5.34,5.34,0,0,0-4.687,2.79l-6.47,11.9a5.565,5.565,0,0,0,.108,5.553,5.637,5.637,0,0,0,1.438,1.614l-2.954,0-.025-20.723V363.3a1.757,1.757,0,0,0-1.757-1.756h-.043a1.768,1.768,0,0,0-1.716,1.759l.042,34.994a1.778,1.778,0,0,0,1.749,1.754h.011a1.757,1.757,0,0,0,1.756-1.76Zm20.864-41.01a4.873,4.873,0,0,0-.916.42l-.41-.872.863-.433Zm-2.328-1.217c-.016.008-.026.022-.041.031a.5.5,0,0,0-.241.294l0,0a2.623,2.623,0,0,1-1.494,1.5,3.44,3.44,0,0,1-1.92-.119,9.856,9.856,0,0,1-1.1-.394,3.736,3.736,0,0,0,1.745-.866,5.528,5.528,0,0,0,.84-1.277c.695-1.284,1.2-2.048,2.354-1.817a1.645,1.645,0,0,1,1.3.943,2,2,0,0,1,.146.91Zm1.23,8.508a3.757,3.757,0,0,1,2.648-6.416h0c.1,0,.193.007.289.014a3.753,3.753,0,0,1-.1,7.49,2.578,2.578,0,0,0-.478,0,3.722,3.722,0,0,1-2.369-1.083Zm-2.551,9.211a.564.564,0,0,0,.527-.291l3.295-5.935a1.459,1.459,0,0,1,1.153-.767c.077,0,.153.011.231.011h.005c.054,0,.106-.007.16-.008a1.516,1.516,0,0,1,1.1,2.251l-4.394,7.762a2.43,2.43,0,0,1-4.328-.194l-2.064-4.555,2.6-1.555,1.219,2.932A.567.567,0,0,0,1398.389,373.787Zm-2.594,4.3-2.107,0,1.07-1.776.351.775A3.568,3.568,0,0,0,1395.795,378.083Zm-5.764-12.551a4.205,4.205,0,0,1,3.693-2.2h.006c.138,0,.273.014.409.027a4.192,4.192,0,0,1,3.345,6.068.458.458,0,0,0-.018-.051.528.528,0,0,0-.051-.056l-.835-2.01a.567.567,0,0,0-1.046.435l.708,1.7-2.632,1.574-.159-.351-.448-.99a.566.566,0,1,0-1.032.467l.846,1.867,1.377,3.039-1.781,2.956-2.8-.892-5.015-1.6Zm-6.385,16.329a4.443,4.443,0,0,1-.086-4.432l.1-.185.385-.708,8.494,2.707a.569.569,0,0,0,.172.027.56.56,0,0,0,.22-.051l7.8-.01h0a2.945,2.945,0,0,1,2.93,2.9l.15,14.38a2.41,2.41,0,0,1-2.408,2.435h0a2.406,2.406,0,0,1-2.358-1.919l-.009-7.428a.521.521,0,0,0-.018-.087l.018-4.885a.566.566,0,0,0-.566-.568h0l-8.454.01-2.518,0A4.442,4.442,0,0,1,1383.646,381.861Zm3.849,3.321h.008l1.374,0,4.611-.006h0l4.41-.005,0,.79-.038,10.541a3.537,3.537,0,0,0,.052.6v1.169a.626.626,0,0,1-.625.626h0a.625.625,0,0,1-.625-.624l-.01-8.652a.566.566,0,0,0-.562-.565h-.005l-14.922.018,0-3.117v-.77Zm-7.636,13.556a.62.62,0,0,1-.441.184h0l-.01,0a.626.626,0,0,1-.616-.622l-.042-34.994a.621.621,0,0,1,.61-.626h.015a.625.625,0,0,1,.625.624v.031l.042,34.962A.62.62,0,0,1,1379.858,398.738Z" transform="translate(0 -64.083)" fill="#404040"/>
    <path id="Path_1063" data-name="Path 1063" d="M1489.755,425.931a2.208,2.208,0,0,0,4.417,0c0-.994-1.42-3.809-1.7-4.364a.59.59,0,0,0-1.007,0C1491.175,422.122,1489.755,424.938,1489.755,425.931Zm2.208-2.825a11.873,11.873,0,0,1,1.076,2.825,1.076,1.076,0,1,1-2.151,0A11.873,11.873,0,0,1,1491.963,423.106Z" transform="translate(-83.103 -115.102)" fill="#404040"/>
    <path id="Path_1064" data-name="Path 1064" d="M1496.515,456.961c-.285.554-1.7,3.37-1.7,4.364a2.208,2.208,0,1,0,4.417,0c0-.994-1.42-3.809-1.7-4.364A.59.59,0,0,0,1496.515,456.961Zm.5,5.439a1.077,1.077,0,0,1-1.076-1.076,11.875,11.875,0,0,1,1.076-2.825,11.868,11.868,0,0,1,1.076,2.825A1.077,1.077,0,0,1,1497.019,462.4Z" transform="translate(-86.85 -141.332)" fill="#404040"/>
    <path id="Path_1065" data-name="Path 1065" d="M1527.675,401.1a.566.566,0,0,0-.566.566V412.4h-13.894v-5.681a3.644,3.644,0,0,0-3.64-3.64h-1.313a.566.566,0,0,0,0,1.133h1.313a2.51,2.51,0,0,1,2.507,2.507v6.248a.539.539,0,0,0,.02.1c0,.181.01.36.022.539q.025.36.079.715c.532,3.591,3.161,6.789,7.268,8.729a.57.57,0,0,0,.23.054l.41.008,1.8.034,1.443.028c.009.007.014.017.023.023l3.139,2.053-5.63,3.722,0,0a3.881,3.881,0,1,0,.849.795l5.817-3.846,6.085,3.979a3.87,3.87,0,1,0,.777-.8.559.559,0,0,0-.136-.134l-5.7-3.726,2.6-1.72a.55.55,0,0,0,.176-.2l3.74.071h.01a.564.564,0,0,0,.219-.044c4.381-1.844,7.3-5.158,7.923-8.876a9.107,9.107,0,0,0,.113-1.133c.005-.126.017-.251.017-.378a.555.555,0,0,0-.069-.257C1543.123,406.282,1536.185,401.1,1527.675,401.1Zm-8.97,33.785a2.724,2.724,0,1,1,2.724-2.724A2.727,2.727,0,0,1,1518.705,434.881Zm18.045-5.447a2.724,2.724,0,1,1-2.723,2.724A2.727,2.727,0,0,1,1536.751,429.434Zm5.41-17.035h-10.936l9.7-3.8A8.485,8.485,0,0,1,1542.161,412.4Zm-7.1-8.669.049.022a13.3,13.3,0,0,1,5.16,3.892l-.638.25-8.407,3.29-1.531.6,5.315-7.972Zm-6.819-1.494a18.579,18.579,0,0,1,5.744,1.064l-.423.635-4.476,6.714-.845,1.267Zm-.7,22.331-2.072-1.355,4.006.076Zm14.551-10.092c-.625,3.228-3.222,6.12-7.1,7.785l-14.488-.276-.657-.012c-3.93-1.892-6.355-5.01-6.6-8.441h28.965A8.028,8.028,0,0,1,1542.092,414.476Z" transform="translate(-96.507 -100.24)" fill="#404040"/>
    <path id="Path_1066" data-name="Path 1066" d="M1544.551,513.194a1.937,1.937,0,1,0,1.937,1.937A1.939,1.939,0,0,0,1544.551,513.194Zm0,2.742a.8.8,0,1,1,.8-.8A.806.806,0,0,1,1544.551,515.935Z" transform="translate(-122.275 -183.214)" fill="#404040"/>
    <path id="Path_1067" data-name="Path 1067" d="M1614.2,517.068a1.937,1.937,0,1,0-1.937-1.937A1.939,1.939,0,0,0,1614.2,517.068Zm0-2.742a.8.8,0,1,1-.8.8A.806.806,0,0,1,1614.2,514.327Z" transform="translate(-173.906 -183.214)" fill="#404040"/>
    <path id="Path_1068" data-name="Path 1068" d="M1539.1,295.015h-35.28V268.7a.566.566,0,1,0-1.133,0v26.885a.566.566,0,0,0,.566.566H1539.1a.566.566,0,1,0,0-1.133Z" transform="translate(-92.8 -1.596)" fill="#404040"/>
    <path id="Path_1069" data-name="Path 1069" d="M1517.628,290.631h20.359a.566.566,0,0,0,.566-.566c0-.017-.008-.03-.009-.047V266.54a.566.566,0,1,0-1.133,0V289.5h-19.217V267.1a.566.566,0,1,0-1.133,0v22.964A.566.566,0,0,0,1517.628,290.631Z" transform="translate(-103.384)" fill="#404040"/>
    <path id="Path_1070" data-name="Path 1070" d="M1617.537,289.51a.564.564,0,0,0-.06-.012h-8.021V266.54a.557.557,0,0,0-.061-.245.563.563,0,0,0-1.071.245v23.524a.566.566,0,0,0,.566.566c.008,0,.015,0,.023,0s.015,0,.023,0h8.542a.566.566,0,0,0,.566-.566A.56.56,0,0,0,1617.537,289.51Z" transform="translate(-170.99)" fill="#404040"/>
    <path id="Path_1071" data-name="Path 1071" d="M1557.822,296.155a6.452,6.452,0,0,0-1.871.278.558.558,0,0,0-.6.384.566.566,0,0,0,.373.709,5.317,5.317,0,0,1,.08,10.127.562.562,0,0,0,.108,1.094.551.551,0,0,0,.069.037,6.448,6.448,0,1,0,1.839-12.628Zm1.23,11.612a5.291,5.291,0,0,1-1.23.15l-.025,0a6.449,6.449,0,0,0,.005-10.626h.02a5.312,5.312,0,0,1,1.23,10.479Z" transform="translate(-131.71 -22.34)" fill="#404040"/>
    <path id="Path_1072" data-name="Path 1072" d="M1534.185,278.308v0a.552.552,0,0,0-.122-.122c-.013-.01-.02-.025-.033-.034h0l0,0a5.668,5.668,0,0,1-2.045-3.09.585.585,0,0,0-.032-.068.56.56,0,0,0-.052-.109.554.554,0,0,0-.072-.08.531.531,0,0,0-.079-.071.565.565,0,0,0-.112-.053.5.5,0,0,0-.065-.031c-.008,0-.016,0-.023,0a1.206,1.206,0,0,0-.229,0c-.007,0-.014,0-.021,0a.529.529,0,0,0-.061.029.538.538,0,0,0-.119.056.552.552,0,0,0-.073.066.544.544,0,0,0-.076.084.561.561,0,0,0-.051.107.607.607,0,0,0-.033.069,5.676,5.676,0,0,1-2.051,3.094.555.555,0,0,0-.135.136c-.005.007-.014.011-.019.018h0a.559.559,0,0,0-.032.554.542.542,0,0,0,.029.071v0a.553.553,0,0,0,.14.141c.006,0,.009.011.015.016a5.672,5.672,0,0,1,2.051,3.094.526.526,0,0,0,.044.1.516.516,0,0,0,.028.063.565.565,0,0,0,.135.149c.008.006.018.009.026.015a.561.561,0,0,0,.159.076c.007,0,.012.008.02.009a.548.548,0,0,0,.133.016h.007a.548.548,0,0,0,.134-.016c.007,0,.012-.007.02-.009a.559.559,0,0,0,.162-.077c.008-.005.017-.007.024-.013a.563.563,0,0,0,.135-.15.614.614,0,0,0,.028-.062.569.569,0,0,0,.044-.1,5.67,5.67,0,0,1,2.051-3.094c.008-.005.011-.013.018-.019a.55.55,0,0,0,.134-.135.56.56,0,0,0,.03-.566A.524.524,0,0,0,1534.185,278.308Zm-2.757,2.159a6.961,6.961,0,0,0-.9-1.336,6.78,6.78,0,0,0-.494-.513,6.941,6.941,0,0,0,1.4-1.849,6.842,6.842,0,0,0,.449.746,6.927,6.927,0,0,0,.949,1.1A6.937,6.937,0,0,0,1531.428,280.467Z" transform="translate(-111.881 -6.411)" fill="#404040"/>
  </g>
</svg>
