<svg xmlns="http://www.w3.org/2000/svg" width="61.946" height="70" viewBox="0 0 61.946 70">
  <g id="Group_5865" data-name="Group 5865" transform="translate(-186.078 -1318.436)">
    <g id="Group_5854" data-name="Group 5854" transform="translate(200.665 1332.283)">
      <g id="Group_5853" data-name="Group 5853" transform="translate(0 0)">
        <path id="Path_1095" data-name="Path 1095" d="M242.265,1384.176h-1.538a.562.562,0,1,1,0-1.124h1.538a1.216,1.216,0,0,0,1.215-1.215v-.033a1.216,1.216,0,0,0-1.215-1.215h-.3a2.339,2.339,0,0,1,0-4.678h1.359a.562.562,0,0,1,0,1.124h-1.359a1.215,1.215,0,1,0,0,2.43h.3a2.342,2.342,0,0,1,2.339,2.339v.033A2.342,2.342,0,0,1,242.265,1384.176Z" transform="translate(-239.624 -1374.101)" fill="#404040"/>
        <path id="Path_1096" data-name="Path 1096" d="M247.279,1372.184a.562.562,0,0,1-.562-.562v-1.807a.562.562,0,0,1,1.124,0v1.807A.562.562,0,0,1,247.279,1372.184Z" transform="translate(-244.789 -1369.253)" fill="#404040"/>
        <path id="Path_1097" data-name="Path 1097" d="M247.279,1405.161a.562.562,0,0,1-.562-.562v-1.792a.562.562,0,1,1,1.124,0v1.792A.562.562,0,0,1,247.279,1405.161Z" transform="translate(-244.789 -1393.276)" fill="#404040"/>
      </g>
    </g>
    <g id="Group_5856" data-name="Group 5856" transform="translate(196.125 1347.044)">
      <g id="Group_5855" data-name="Group 5855" transform="translate(0 0)">
        <path id="Path_1098" data-name="Path 1098" d="M225.6,1438.346h-1.539a.562.562,0,1,1,0-1.124H225.6a1.216,1.216,0,0,0,1.215-1.215v-.033a1.216,1.216,0,0,0-1.215-1.215h-.3a2.339,2.339,0,0,1,0-4.678h1.359a.562.562,0,0,1,0,1.124h-1.359a1.215,1.215,0,1,0,0,2.43h.3a2.342,2.342,0,0,1,2.339,2.339v.033A2.342,2.342,0,0,1,225.6,1438.346Z" transform="translate(-222.956 -1428.272)" fill="#404040"/>
        <path id="Path_1099" data-name="Path 1099" d="M230.611,1426.364a.562.562,0,0,1-.562-.562v-1.816a.562.562,0,1,1,1.124,0v1.816A.562.562,0,0,1,230.611,1426.364Z" transform="translate(-228.121 -1423.424)" fill="#404040"/>
        <path id="Path_1100" data-name="Path 1100" d="M230.611,1459.319a.562.562,0,0,1-.562-.562v-1.8a.562.562,0,1,1,1.124,0v1.8A.562.562,0,0,1,230.611,1459.319Z" transform="translate(-228.121 -1447.435)" fill="#404040"/>
      </g>
    </g>
    <g id="Group_5858" data-name="Group 5858" transform="translate(230.18 1332.283)">
      <g id="Group_5857" data-name="Group 5857" transform="translate(0 0)">
        <path id="Path_1101" data-name="Path 1101" d="M351.842,1384.176H350.3a2.342,2.342,0,0,1-2.339-2.339v-.033a2.342,2.342,0,0,1,2.339-2.339h.3a1.215,1.215,0,0,0,0-2.43h-1.359a.562.562,0,0,1,0-1.124h1.359a2.339,2.339,0,0,1,0,4.678h-.3a1.216,1.216,0,0,0-1.215,1.215v.033a1.216,1.216,0,0,0,1.215,1.215h1.539a.562.562,0,0,1,0,1.124Z" transform="translate(-347.964 -1374.101)" fill="#404040"/>
        <path id="Path_1102" data-name="Path 1102" d="M355.621,1372.2a.562.562,0,0,1-.562-.562v-1.821a.562.562,0,0,1,1.124,0v1.821A.562.562,0,0,1,355.621,1372.2Z" transform="translate(-353.13 -1369.253)" fill="#404040"/>
        <path id="Path_1103" data-name="Path 1103" d="M355.621,1405.161a.562.562,0,0,1-.562-.562v-1.792a.562.562,0,1,1,1.124,0v1.792A.562.562,0,0,1,355.621,1405.161Z" transform="translate(-353.13 -1393.276)" fill="#404040"/>
      </g>
    </g>
    <g id="Group_5860" data-name="Group 5860" transform="translate(214.288 1325.453)">
      <g id="Group_5859" data-name="Group 5859" transform="translate(0 0)">
        <path id="Path_1104" data-name="Path 1104" d="M293.5,1359.174h-1.539a2.342,2.342,0,0,1-2.339-2.339v-.033a2.342,2.342,0,0,1,2.339-2.339h.3a1.215,1.215,0,0,0,0-2.43H290.91a.562.562,0,0,1,0-1.124h1.359a2.339,2.339,0,0,1,0,4.678h-.3a1.216,1.216,0,0,0-1.215,1.215v.033a1.216,1.216,0,0,0,1.215,1.215H293.5a.562.562,0,1,1,0,1.124Z" transform="translate(-289.627 -1349.099)" fill="#404040"/>
        <path id="Path_1105" data-name="Path 1105" d="M297.283,1347.174a.562.562,0,0,1-.562-.562v-1.8a.562.562,0,0,1,1.124,0v1.8A.562.562,0,0,1,297.283,1347.174Z" transform="translate(-294.793 -1344.251)" fill="#404040"/>
        <path id="Path_1106" data-name="Path 1106" d="M297.283,1380.139a.562.562,0,0,1-.562-.562v-1.8a.562.562,0,1,1,1.124,0v1.8A.562.562,0,0,1,297.283,1380.139Z" transform="translate(-294.793 -1368.255)" fill="#404040"/>
      </g>
    </g>
    <g id="Group_5862" data-name="Group 5862" transform="translate(234.74 1347.044)">
      <g id="Group_5861" data-name="Group 5861" transform="translate(0 0)">
        <path id="Path_1107" data-name="Path 1107" d="M368.51,1438.346h-1.539a2.341,2.341,0,0,1-2.339-2.339v-.033a2.342,2.342,0,0,1,2.339-2.339h.3a1.215,1.215,0,1,0,0-2.43h-1.358a.562.562,0,1,1,0-1.124h1.358a2.339,2.339,0,1,1,0,4.678h-.3a1.216,1.216,0,0,0-1.215,1.215v.033a1.216,1.216,0,0,0,1.215,1.215h1.539a.562.562,0,1,1,0,1.124Z" transform="translate(-364.632 -1428.272)" fill="#404040"/>
        <path id="Path_1108" data-name="Path 1108" d="M372.288,1426.364a.562.562,0,0,1-.562-.562v-1.816a.562.562,0,1,1,1.124,0v1.816A.562.562,0,0,1,372.288,1426.364Z" transform="translate(-369.798 -1423.424)" fill="#404040"/>
        <path id="Path_1109" data-name="Path 1109" d="M372.288,1459.283a.562.562,0,0,1-.562-.562v-1.811a.562.562,0,0,1,1.124,0v1.811A.562.562,0,0,1,372.288,1459.283Z" transform="translate(-369.798 -1447.399)" fill="#404040"/>
      </g>
    </g>
    <path id="Path_1110" data-name="Path 1110" d="M263.229,1542.542a.562.562,0,0,1-.275-1.053l2.45-1.37a.562.562,0,1,1,.548.981l-2.45,1.37A.559.559,0,0,1,263.229,1542.542Z" transform="translate(-55.724 -161.23)" fill="#404040"/>
    <path id="Path_1111" data-name="Path 1111" d="M306.246,1523.035a.562.562,0,0,1-.266-1.057l.116-.062a2.994,2.994,0,1,0-2.865-5.259l-3.948,2.242a.562.562,0,1,1-.555-.977l3.953-2.245a4.118,4.118,0,1,1,3.946,7.23l-.116.062A.561.561,0,0,1,306.246,1523.035Z" transform="translate(-81.747 -143.103)" fill="#404040"/>
    <path id="Path_1112" data-name="Path 1112" d="M246.955,1506.214a6.262,6.262,0,0,1-6.241-6.26l.016-11.126a8.257,8.257,0,0,1,8.313-8.451H264a.562.562,0,0,1,0,1.124H249.043a7.134,7.134,0,0,0-7.189,7.329l-.016,11.126a5.12,5.12,0,0,0,7.542,4.518l7.286-3.907a.562.562,0,0,1,.531.991l-7.286,3.907A6.238,6.238,0,0,1,246.955,1506.214Z" transform="translate(-39.735 -117.778)" fill="#404040"/>
    <path id="Path_1113" data-name="Path 1113" d="M284.229,1506.214a6.236,6.236,0,0,1-2.956-.751l-14.678-7.882a4.118,4.118,0,1,1,3.94-7.233l14.025,7.894a.562.562,0,1,1-.551.979l-14.021-7.892a2.994,2.994,0,1,0-2.861,5.261l14.678,7.882a5.12,5.12,0,0,0,7.542-4.518l-.016-11.126a7.134,7.134,0,0,0-7.189-7.329h-14.96a.562.562,0,1,1,0-1.124h14.96a8.257,8.257,0,0,1,8.313,8.451l.016,11.126a6.262,6.262,0,0,1-6.241,6.26Z" transform="translate(-56.973 -117.778)" fill="#404040"/>
    <path id="Path_1114" data-name="Path 1114" d="M193.756,1369.1a.563.563,0,0,1-.553-.672l1.255-6.4-6.165-2.113a.564.564,0,0,1-.3-.825l3.366-5.584-5.071-4.1a.564.564,0,0,1,0-.877l5.071-4.1-3.366-5.583a.564.564,0,0,1,.3-.825l6.165-2.113-1.255-6.4a.563.563,0,0,1,.564-.672l6.515.125,1.008-6.443a.563.563,0,0,1,.759-.438l6.079,2.347,3.149-5.709a.563.563,0,0,1,.863-.152l4.91,4.287,4.91-4.287a.563.563,0,0,1,.863.152l3.149,5.709,6.08-2.347a.563.563,0,0,1,.759.438l1.008,6.443,6.515-.125a.578.578,0,0,1,.442.2.565.565,0,0,1,.121.471l-1.254,6.4,6.165,2.113a.564.564,0,0,1,.3.825l-3.366,5.583,5.071,4.1a.564.564,0,0,1,0,.877l-5.071,4.1,3.366,5.584a.564.564,0,0,1-.3.825l-6.165,2.113,1.254,6.4a.565.565,0,0,1-.121.471.585.585,0,0,1-.442.2l-3.876-.074a.564.564,0,0,1,.022-1.127l3.179.061-1.215-6.2a.563.563,0,0,1,.37-.642l5.969-2.046-3.259-5.407a.564.564,0,0,1,.129-.73l4.91-3.965-4.91-3.965a.564.564,0,0,1-.129-.73l3.259-5.407-5.969-2.046a.563.563,0,0,1-.37-.642l1.215-6.2-6.309.121a.569.569,0,0,1-.567-.476l-.976-6.238-5.887,2.273a.563.563,0,0,1-.7-.254l-3.05-5.528-4.755,4.151a.563.563,0,0,1-.74,0l-4.755-4.151-3.05,5.528a.564.564,0,0,1-.7.254l-5.887-2.273-.976,6.238a.574.574,0,0,1-.567.476l-6.309-.121,1.215,6.2a.564.564,0,0,1-.37.642l-5.969,2.046,3.259,5.407a.564.564,0,0,1-.129.73l-4.91,3.965,4.91,3.965a.564.564,0,0,1,.129.73l-3.259,5.407,5.969,2.046a.564.564,0,0,1,.37.642l-1.215,6.2,3.044-.059a.572.572,0,0,1,.574.553.563.563,0,0,1-.552.574l-3.742.072Z" fill="#404040"/>
    <g id="Group_5863" data-name="Group 5863" transform="translate(206.733 1338.899)">
      <path id="Path_1115" data-name="Path 1115" d="M272.1,1415.86c-4.407,0-8.131-3.556-8.784-8.328a9.061,9.061,0,0,1-.917-8.15l.014-.039a8.887,8.887,0,0,1,6.113-5.5,14.491,14.491,0,0,1,10.423,1.63,3.123,3.123,0,0,0,3.283.038.562.562,0,0,1,.872.407c.016.145.36,3.579-1.576,5.833a5.08,5.08,0,0,1-1.075.946,10.671,10.671,0,0,1,.531,3.349,11.005,11.005,0,0,1-.08,1.32C280.316,1412.211,276.531,1415.86,272.1,1415.86Zm-3.674-13.9a4.1,4.1,0,0,0-2.628.954,5.04,5.04,0,0,0-1.409,4.118l0,.045c.46,4.369,3.774,7.66,7.707,7.66,3.863,0,7.168-3.225,7.689-7.5a9.854,9.854,0,0,0,.071-1.184,9.572,9.572,0,0,0-.422-2.834,6.693,6.693,0,0,1-2.083.407,16.038,16.038,0,0,1-5.676-.966A11.508,11.508,0,0,0,268.427,1401.96Zm3.133-7.347a11.315,11.315,0,0,0-2.758.326,7.763,7.763,0,0,0-5.337,4.8l-.01.027a8.044,8.044,0,0,0-.067,5.4,5.187,5.187,0,0,1,1.721-3.139c2.37-1.844,4.572-1.163,6.9-.443a15.066,15.066,0,0,0,5.294.917,4.5,4.5,0,0,0,3.367-1.473,6.778,6.778,0,0,0,1.337-4.162,4.3,4.3,0,0,1-3.634-.422A13.631,13.631,0,0,0,271.56,1394.612Z" transform="translate(-261.827 -1393.491)" fill="#404040"/>
      <path id="Path_1116" data-name="Path 1116" d="M328.419,1426.24a.562.562,0,0,1-.489-.837,10.154,10.154,0,0,0,1.052-6.042.562.562,0,0,1,1.115-.144,11.3,11.3,0,0,1-1.187,6.735A.563.563,0,0,1,328.419,1426.24Z" transform="translate(-309.909 -1411.867)" fill="#404040"/>
      <path id="Path_1117" data-name="Path 1117" d="M296.044,1458.026h-3.207a.562.562,0,1,1,0-1.124h3.207a.562.562,0,0,1,0,1.124Z" transform="translate(-283.999 -1439.666)" fill="#404040"/>
    </g>
    <path id="Path_1118" data-name="Path 1118" d="M283.341,1485.967a6.212,6.212,0,0,1-6.062-4.775.562.562,0,1,1,1.093-.262,5.111,5.111,0,0,0,9.938,0,.562.562,0,0,1,1.093.262A6.211,6.211,0,0,1,283.341,1485.967Z" transform="translate(-66.336 -117.911)" fill="#404040"/>
    <path id="Path_1119" data-name="Path 1119" d="M338.728,1522.516a.56.56,0,0,1-.241-.054,7.481,7.481,0,0,0-6.2-.01.562.562,0,0,1-.523-.995,8.488,8.488,0,0,1,7.206-.011.562.562,0,0,1-.241,1.07Z" transform="translate(-105.774 -147.128)" fill="#404040"/>
    <path id="Path_1120" data-name="Path 1120" d="M248.069,1522.355a.564.564,0,0,1-.24-.054,7.465,7.465,0,0,0-6.206-.024.562.562,0,1,1-.521-1,8.524,8.524,0,0,1,7.208,0,.562.562,0,0,1-.241,1.07Z" transform="translate(-39.813 -147.008)" fill="#404040"/>
  </g>
</svg>
