<svg xmlns="http://www.w3.org/2000/svg" width="56.174" height="70" viewBox="0 0 56.174 70">
  <g id="Group_5871" data-name="Group 5871" transform="translate(-1049.452 -265.974)">
    <path id="Path_1043" data-name="Path 1043" d="M1236.479,484.751l1.232,6.159q-.52-3.058-1.131-6.1C1236.545,484.791,1236.513,484.77,1236.479,484.751Z" transform="translate(-138.631 -162.152)" fill="#404040"/>
    <path id="Path_1044" data-name="Path 1044" d="M1050.016,335.625a.557.557,0,0,0,.49-.3.545.545,0,0,0,.074-.264v-1.878a11.966,11.966,0,0,1,4.937-9.493l-.28,1.4-1.916,9.577-.126.63a.564.564,0,0,0,.442.663.586.586,0,0,0,.111.011.564.564,0,0,0,.552-.453l.17-.851,2.417-12.084a.58.58,0,0,0,.012-.061l3.614-18.072a5.074,5.074,0,0,1,3.286-3.769.547.547,0,0,0,.132.025l.045,0a.557.557,0,0,0,.373-.188,5,5,0,0,1,2.037-.05,5.068,5.068,0,0,1,4.066,5.874l-5.108,28.326-.1.547a.564.564,0,0,0,1.11.2l.135-.746,2.34-12.978.184-1.019a.538.538,0,0,0,.144.029h15.4l.187,1.037,2.332,12.93.135.746a.564.564,0,0,0,1.11-.2l-.1-.547-5.108-28.326a5.067,5.067,0,0,1,4.066-5.874c.037-.007.074-.009.11-.015a5.077,5.077,0,0,1,5.763,4l6.2,30.994,0,.011a.564.564,0,0,0,1.105-.221l-.114-.568-1.187-5.935-1.236-6.178c.034.019.066.04.1.059a12.2,12.2,0,0,1,6.575,10.567v1.878a.564.564,0,1,0,1.127,0v-1.878a13.442,13.442,0,0,0-8-11.99l-.084-.042-.753-3.767-2.63-13.152a6.21,6.21,0,0,0-4.116-4.646,15.794,15.794,0,0,0-2.682-10.657,15.024,15.024,0,0,0,.629-2.058.545.545,0,0,0,.323-.2,43.6,43.6,0,0,0,2.6-3.857c4.262,1.2,6.745,2.887,6.745,4.515,0,1.441-1.961,2.927-5.38,4.079a.564.564,0,0,0,.36,1.069c4.022-1.354,6.148-3.134,6.148-5.147,0-2.365-2.971-4.235-7.314-5.488,2.337-4.258,2.853-7.6,1.269-9.187-1.636-1.637-5.029-1.1-9.585,1.494-1.24-4.763-3.192-8.178-5.729-8.178-2.316,0-4.392,2.977-5.748,8.189-4.164-2.373-7.807-3.264-9.566-1.5-1.566,1.566-1.068,4.867,1.184,9.031-4.644,1.252-7.868,3.178-7.868,5.643,0,2.023,2.144,3.809,6.2,5.165a.564.564,0,0,0,.358-1.069c-3.452-1.154-5.432-2.647-5.432-4.1,0-1.7,2.7-3.462,7.3-4.665a45.48,45.48,0,0,0,3.644,5.245.547.547,0,0,0,.146.116,9.806,9.806,0,0,0-1.385,1.233c-2.2,2.383-3.17,5.884-2.907,10.39a6.2,6.2,0,0,0-3.937,4.58l-3.573,17.862a13.241,13.241,0,0,0-6.383,11.088v1.878A.564.564,0,0,0,1050.016,335.625Zm34.338-16.05h-15.141l.7-3.868a13.051,13.051,0,0,0,13.736-.06Zm2.622-20.214a6.206,6.206,0,0,0-4.972,7.183l1.425,7.9a11.945,11.945,0,0,1-13.105.2.564.564,0,0,0-.207-.08l1.446-8.019a6.2,6.2,0,0,0-4.05-6.931,15.582,15.582,0,0,1,9.159-3.138,15.056,15.056,0,0,0,2.334-.313,11.538,11.538,0,0,0,4.114-1.713,12.074,12.074,0,0,1,4.347,4.848C1087.3,299.313,1087.14,299.331,1086.976,299.361Zm2.007-1.233c0,.431-.022.833-.05,1.2-.073-.01-.146-.02-.22-.028a13.21,13.21,0,0,0-4.647-5.578c.224-.193.439-.39.639-.595a11.758,11.758,0,0,0,2.119-2.991A14.339,14.339,0,0,1,1088.983,298.129Zm-.684-13.357a.56.56,0,0,0-.737-.5,20.66,20.66,0,0,1-2.888.62v0l-.025-.026c-.046-1.1-.122-2.2-.227-3.282a45.019,45.019,0,0,1,5.353.934Q1089.109,283.613,1088.3,284.771Zm3.641-11.315c1.221,1.221.564,4.256-1.593,8.085a47.762,47.762,0,0,0-6.046-1.076,49.106,49.106,0,0,0-.871-5.171C1087.473,272.943,1090.72,272.235,1091.941,273.456Zm-8.488,10.144c-.271-.281-.543-.562-.819-.838q-.745-.745-1.517-1.465,1.114.067,2.169.168Q1083.385,282.5,1083.453,283.6Zm-6.029-16.5c2.255,0,4.77,4.867,5.744,13.242-1.1-.107-2.226-.184-3.357-.233a52.621,52.621,0,0,0-7.124-5.348C1073.871,270.028,1075.67,267.1,1077.424,267.1Zm-14.517,6.355c1.239-1.239,4.5-.553,8.726,1.943a.547.547,0,0,0,.276.173c.006,0,.012,0,.018,0a47.509,47.509,0,0,1,6.124,4.486q-.474-.007-.947-.008a57.183,57.183,0,0,0-12.683,1.355C1062.331,277.655,1061.691,274.672,1062.907,273.456Zm2.086,8.934a55.826,55.826,0,0,1,12.111-1.211q1.158,0,2.267.037,1.22,1.1,2.466,2.345c.5.5.987,1.009,1.466,1.521a43.5,43.5,0,0,1-5,.276c-2.875,0-6.735.261-9.823,2.115a.551.551,0,0,0-.107-.26A45.756,45.756,0,0,1,1064.993,282.39Zm2.088,7.638c2.935-3.176,7.811-3.543,11.224-3.543a37.438,37.438,0,0,0,8.793-.911c-.038.27-.1.6-.179.977-.639,2.884-2.837,8.383-10.31,8.8-5.444.3-8.685,2.3-10.459,3.954a5.939,5.939,0,0,0-1.689.051C1064.261,295.28,1065.132,292.137,1067.081,290.028Z" transform="translate(0 0)" fill="#404040"/>
    <path id="Path_1045" data-name="Path 1045" d="M1145.285,429.457h-4.5a1.967,1.967,0,0,0,0,3.934h4.5a1.967,1.967,0,0,0,0-3.934Zm0,2.81h-4.5a.843.843,0,0,1,0-1.686h4.5a.842.842,0,0,1,.838.794c0,.017,0,.032,0,.049A.844.844,0,0,1,1145.285,432.267Z" transform="translate(-66.243 -121.193)" fill="#404040"/>
  </g>
</svg>
