<svg xmlns="http://www.w3.org/2000/svg" width="56.315" height="70" viewBox="0 0 56.315 70">
  <g id="Group_5868" data-name="Group 5868" transform="translate(-667.629 -265.803)">
    <path id="Path_1033" data-name="Path 1033" d="M832.507,344.025c-.054.293-.12.579-.2.857A5.082,5.082,0,0,0,832.507,344.025Z" transform="translate(-122.108 -57.999)" fill="#404040"/>
    <path id="Path_1034" data-name="Path 1034" d="M668.435,373.213a2.107,2.107,0,0,0,1.126.456c.067.006.131.02.2.02a2.133,2.133,0,0,0,2.131-2.131V360.279h19.256v11.279a2.131,2.131,0,0,0,4.262,0V357.542a4.985,4.985,0,0,0-1.84-3.868h6.757l-.039,15.935a4.152,4.152,0,0,0,4.144,4.118h.01a4.143,4.143,0,0,0,4.134-4.179l.233-19.743a5.175,5.175,0,0,0-5.156-5.1H701.3a4.507,4.507,0,0,0,1-1.2L708.1,333.3a3.317,3.317,0,0,0-.723-4.143,6.253,6.253,0,1,0-4.258-.04,3.3,3.3,0,0,0-.789.94l-3.779,6.788-.8-1.933.486-.824a6.849,6.849,0,1,0-11.939-6.711l-8.534,15.646a7.192,7.192,0,0,0,2.467,9.529h-8.335v-27.5a2.135,2.135,0,0,0-.051-.454,2.1,2.1,0,0,0-.325-.754,2.154,2.154,0,0,0-.265-.316,2.1,2.1,0,0,0-1.538-.607,2.143,2.143,0,0,0-2.083,2.13v46.509A2.119,2.119,0,0,0,668.435,373.213Zm39.013-3.665a3.018,3.018,0,0,1-3.01,3.053h-.007a3.023,3.023,0,0,1-3.018-2.995v-.533h6.039Zm-7.276-46.286a5.132,5.132,0,0,1,5.126-5.126c.112,0,.222.01.332.017a5.079,5.079,0,0,1,4.736,5.836,5.069,5.069,0,0,1-.2.857,5.132,5.132,0,0,1-4.582,3.528,3.257,3.257,0,0,0-.677,0,5.124,5.124,0,0,1-4.74-5.107Zm-2.219,15.086a.563.563,0,0,0,1.012.058l4.345-7.805a2.111,2.111,0,0,1,1.671-1.1c.106.005.21.016.317.016.076,0,.149-.009.224-.011a2.178,2.178,0,0,1,1.594,3.237l-5.794,10.209a3.38,3.38,0,0,1-6.021-.277l-2.782-6.16,3.669-2.425Zm-2.491,6.361h-3.548l1.758-2.91.6,1.337A4.5,4.5,0,0,0,695.461,344.709Zm-8.179-16.8a5.719,5.719,0,0,1,5.024-2.982,5.868,5.868,0,0,1,.739.048,5.722,5.722,0,0,1,4.216,8.538l-.053.09-1.318-3.183a.557.557,0,0,0-.657-.32.512.512,0,0,0-.079.015.563.563,0,0,0-.3.736l.9,2.174-3.7,2.445-.872-1.93a.563.563,0,1,0-1.026.463l.9,1.989,2.058,4.558-2.474,4.092-3.319-1.063-7.306-2.338Zm-8.425,21.66a6.027,6.027,0,0,1-.109-6.014l.334-.613.378-.694,11.318,3.622a.523.523,0,0,0,.421-.039h12.452a4.051,4.051,0,0,1,4.03,3.97l-.214,18.142h-6.05l.036-14.835a.563.563,0,0,0-.563-.564H684.085A6.027,6.027,0,0,1,678.857,349.572Zm-6.966,4.854v-.752h18.524a3.881,3.881,0,0,1,3.868,3.868v14.016a1,1,0,0,1-2.01,0V359.717a.563.563,0,0,0-.563-.563H671.891Zm-3.136-29.377a1.011,1.011,0,0,1,.982-1h.024a.995.995,0,0,1,.992.885,1.015,1.015,0,0,1,.012.119v46.509a1,1,0,0,1-2.01,0Z" transform="translate(0 -37.924)" fill="#404040"/>
    <path id="Path_1035" data-name="Path 1035" d="M857.435,317.125l1.881-3.379a.563.563,0,0,0-.984-.548l-1.881,3.378a.563.563,0,1,0,.984.548Z" transform="translate(-139.947 -34.927)" fill="#404040"/>
    <path id="Path_1036" data-name="Path 1036" d="M848.223,306.515a.562.562,0,0,0,.492-.289l1.881-3.379a.563.563,0,1,0-.984-.548l-1.881,3.379a.563.563,0,0,0,.491.837Z" transform="translate(-133.481 -26.854)" fill="#404040"/>
    <path id="Path_1037" data-name="Path 1037" d="M777.681,308.839l-1.881,3.379a.563.563,0,1,0,.984.548l1.881-3.379a.563.563,0,1,0-.984-.548Z" transform="translate(-80.151 -31.695)" fill="#404040"/>
    <path id="Path_1038" data-name="Path 1038" d="M767.3,302.084a.563.563,0,0,0,.766-.218l1.881-3.378a.563.563,0,0,0-.984-.548l-1.881,3.379A.563.563,0,0,0,767.3,302.084Z" transform="translate(-73.686 -23.621)" fill="#404040"/>
    <path id="Path_1039" data-name="Path 1039" d="M874.107,297.725a.563.563,0,0,0,.766-.218l1.881-3.379a.563.563,0,0,0-.984-.548l-1.881,3.378A.563.563,0,0,0,874.107,297.725Z" transform="translate(-152.88 -20.388)" fill="#404040"/>
    <path id="Path_1040" data-name="Path 1040" d="M778.738,273.5a5.068,5.068,0,0,0,1.645-.273c.018.028.039.052.057.08q.183.284.392.548c.032.041.061.086.094.126a7.152,7.152,0,0,0,.513.554c.081.079.165.152.249.227.113.1.229.2.349.292.094.073.187.144.284.212.135.095.275.182.416.267.083.05.162.1.247.151a7.072,7.072,0,0,0,.686.327c.078.032.159.058.238.088.176.065.353.125.536.177.09.026.181.049.273.071.185.044.373.08.563.11.083.013.165.028.248.038a7,7,0,0,0,.828.053,7.074,7.074,0,0,0,6.739-5.009,4.185,4.185,0,0,0,4.694-5.333.563.563,0,0,0-1.078.325c.015.05.021.1.034.152a3.051,3.051,0,0,1-3.886,3.644.563.563,0,0,0-.721.42,5.869,5.869,0,0,1-6.513,4.626c-.07-.009-.138-.021-.206-.032q-.27-.044-.533-.111c-.065-.017-.13-.031-.193-.05a5.861,5.861,0,0,1-.654-.232c-.051-.022-.1-.049-.149-.072q-.242-.111-.473-.244-.115-.067-.226-.137c-.135-.087-.267-.179-.395-.277-.06-.045-.122-.087-.18-.135a5.866,5.866,0,0,1-.487-.449c-.053-.055-.1-.113-.154-.169-.118-.131-.23-.267-.337-.408-.039-.052-.079-.1-.117-.156a5.981,5.981,0,0,1-.385-.622,5.876,5.876,0,0,1-.692-2.768.563.563,0,1,0-1.126,0,7.155,7.155,0,0,0,.54,2.7,3.942,3.942,0,0,1-1.119.167,4.011,4.011,0,0,1-3.625-5.721.556.556,0,0,0-.19-.692.539.539,0,0,0-.078-.058.563.563,0,0,0-.75.268,5.136,5.136,0,0,0,4.643,7.329Z" transform="translate(-78.555)" fill="#404040"/>
    <path id="Path_1041" data-name="Path 1041" d="M752.04,323.883a.562.562,0,0,0,.766-.218l1.881-3.379a.563.563,0,1,0-.984-.548l-1.881,3.379A.563.563,0,0,0,752.04,323.883Z" transform="translate(-62.373 -39.777)" fill="#404040"/>
    <path id="Path_1042" data-name="Path 1042" d="M743.321,302.084a.556.556,0,0,0,.273.071.563.563,0,0,0,.492-.289l1.881-3.378a.563.563,0,1,0-.984-.548l-1.881,3.379A.562.562,0,0,0,743.321,302.084Z" transform="translate(-55.908 -23.621)" fill="#404040"/>
  </g>
</svg>
