<svg xmlns="http://www.w3.org/2000/svg" width="69.664" height="70" viewBox="0 0 69.664 70">
  <g id="Group_5866" data-name="Group 5866" transform="translate(-998.389 -801.287)">
    <path id="Path_1086" data-name="Path 1086" d="M1019.339,987.737a22.34,22.34,0,0,0,2.24,4.25,33,33,0,0,1-1.9-3.493Q1019.5,988.106,1019.339,987.737Z" transform="translate(-15.384 -136.941)" fill="#404040"/>
    <path id="Path_1087" data-name="Path 1087" d="M1191.453,816.864a6.74,6.74,0,1,0-6.739-6.74A6.747,6.747,0,0,0,1191.453,816.864Zm0-12.321a5.528,5.528,0,0,1,.823.068,5.539,5.539,0,1,1-.823-.068Z" transform="translate(-136.859 -1.54)" fill="#404040"/>
    <path id="Path_1088" data-name="Path 1088" d="M1073.9,864.512a9.191,9.191,0,0,0-5.808-2.108h-8.176a9.1,9.1,0,0,0-9.083,9.089V886.5a5.626,5.626,0,0,0,5.037,5.589v13.747l-2.592,4.9a7.249,7.249,0,0,1-1.762,2.331,7.326,7.326,0,0,1-4.718,1.726h-8.956a11.021,11.021,0,0,1-7.937-3.376q.307-.123.608-.252c10.005-4.285,15.474-13.373,15.557-20.063.053-4.324-1.959-7.522-5.665-9.006-5.734-2.294-10.259,2.108-11.841,3.964-.1.123-.2.233-.274.331a16.112,16.112,0,0,0-1.585-1.694c-2.157-2-5.961-4.431-10.531-2.6-3.507,1.4-5.412,4.394-5.362,8.42.089,7.205,6.74,17.094,17.714,21.173a.611.611,0,0,0,.075.014,12.163,12.163,0,0,0,9.241,4.248h8.956a8.481,8.481,0,0,0,5.465-2,8.354,8.354,0,0,0,2.045-2.686l1.562-2.951v4.46a4.093,4.093,0,0,0-1.119,2.852.579.579,0,0,0,.579.579h8.921c.012,0,.022-.006.033-.007s.023.007.035.007h8.921a.593.593,0,0,0,.579-.6,4.141,4.141,0,0,0-1.576-3.273c-.033-.026-.069-.048-.1-.073v-20.17a5.625,5.625,0,0,0,5.037-5.589V871.493A9.074,9.074,0,0,0,1073.9,864.512Zm-45.034,46.067a28.339,28.339,0,0,1-13.551-10.624,22.332,22.332,0,0,1-2.239-4.25,15,15,0,0,1-1.107-5.2,7.261,7.261,0,0,1,4.634-7.33c4.223-1.692,7.69.728,9.564,2.573a13.237,13.237,0,0,1,1.5,1.743.948.948,0,0,0,1.235,0c.193-.28,4.8-6.825,11.069-4.317,3.231,1.293,4.984,4.1,4.937,7.916-.081,6.5-5.61,15.412-15.695,19.346C1029.1,910.48,1028.984,910.534,1028.864,910.579Zm27-19.655a4.464,4.464,0,0,1-3.88-4.419V876.443h3.88Zm.091,24.123a2.824,2.824,0,0,1,.919-1.64,4.494,4.494,0,0,1,5.667-.153,2.927,2.927,0,0,1,1.072,1.793Zm7.745-2.292a3.846,3.846,0,0,0-.452-.418,5.646,5.646,0,0,0-5.384-.829,5.7,5.7,0,0,0-.843.392V909.58h6.678Zm0-4.333h-6.678v-4.054h6.678Zm.579-15.216a.579.579,0,0,0-.579.579v9.424h-6.678V888.764h13.955V911.6a5.653,5.653,0,0,0-5.867.925c-.089.076-.171.159-.252.243V893.785A.579.579,0,0,0,1064.281,893.206Zm8.323,21.841h-7.657a2.817,2.817,0,0,1,.919-1.64,4.494,4.494,0,0,1,5.667-.153A2.925,2.925,0,0,1,1072.6,915.047Zm3.411-28.543a4.464,4.464,0,0,1-3.879,4.419V876.443h3.879Zm0-11.22h-3.879v-3.341a.579.579,0,1,0-1.158,0v15.662h-13.955V871.944a.589.589,0,0,0-.579-.579.579.579,0,0,0-.578.579v3.341h-3.88v-3.792a7.937,7.937,0,0,1,7.926-7.93h8.176a7.953,7.953,0,0,1,7.926,7.93Z" transform="translate(-9.12 -44.918)" fill="#404040"/>
    <path id="Path_1089" data-name="Path 1089" d="M1127.226,974.047a.578.578,0,0,0-.686.447,12.324,12.324,0,0,1-.886,2.616.579.579,0,0,0,.283.769.572.572,0,0,0,.242.054.578.578,0,0,0,.526-.336,13.542,13.542,0,0,0,.968-2.862A.58.58,0,0,0,1127.226,974.047Z" transform="translate(-93.432 -126.877)" fill="#404040"/>
    <path id="Path_1090" data-name="Path 1090" d="M1112.739,950.858a.579.579,0,0,0,.558.6h.022a.579.579,0,0,0,.578-.558,6.266,6.266,0,0,0-3.938-6.439,6.2,6.2,0,0,0-2.9-.44.579.579,0,0,0,.106,1.154,5.18,5.18,0,0,1,5.573,5.683Z" transform="translate(-79.43 -104.815)" fill="#404040"/>
    <path id="Path_1091" data-name="Path 1091" d="M1056.936,859.575a2.388,2.388,0,0,1,1.155.166,2.235,2.235,0,0,1,1.41,1.572.579.579,0,0,0,.56.433.586.586,0,0,0,.147-.019.579.579,0,0,0,.415-.706,3.382,3.382,0,0,0-2.1-2.356,3.506,3.506,0,0,0-1.716-.24.579.579,0,0,0,.131,1.15Z" transform="translate(-42.528 -41.949)" fill="#404040"/>
    <path id="Path_1092" data-name="Path 1092" d="M1009.151,868.925a.578.578,0,0,0,.2.036.586.586,0,0,0,.086-.013.6.6,0,0,0,.086.013.58.58,0,0,0,.2-.036c.134-.05.258-.109.39-.161.364-.145.722-.3,1.068-.46,5.987-2.828,9.253-8.33,9.3-12.408a5.508,5.508,0,0,0-3.524-5.556c-3.646-1.458-6.517,1.318-7.526,2.5-1.008-1.177-3.879-3.952-7.525-2.5a5.508,5.508,0,0,0-3.525,5.556C998.444,860.294,1002.234,866.356,1009.151,868.925Zm-8.73-9.423a9.436,9.436,0,0,1-.874-3.62,4.414,4.414,0,0,1,2.8-4.466c3.684-1.475,6.418,2.4,6.532,2.569.009.012.021.018.031.03a.569.569,0,0,0,.5.209.579.579,0,0,0,.594-.24c.028-.041,2.835-4.048,6.532-2.568a4.414,4.414,0,0,1,2.8,4.466c-.048,3.87-3.452,9.1-9.115,11.588-.255.112-.513.221-.777.322a16.6,16.6,0,0,1-8.038-6.471A13.55,13.55,0,0,1,1000.421,859.5Z" transform="translate(0 -35.726)" fill="#404040"/>
    <path id="Path_1093" data-name="Path 1093" d="M1096.743,882.788a3.746,3.746,0,0,0-4.108-1.164,3.226,3.226,0,0,0-2.047,3.213c.03,2.432,2.11,5.779,5.907,7.189a.575.575,0,0,0,.2.036.462.462,0,0,0,.046-.007.45.45,0,0,0,.046.007.575.575,0,0,0,.2-.036c3.8-1.411,5.878-4.757,5.908-7.189a3.226,3.226,0,0,0-2.047-3.213A3.747,3.747,0,0,0,1096.743,882.788Zm3.678-.088a2.088,2.088,0,0,1,1.319,2.123c-.022,1.8-1.488,4.2-3.968,5.571a8.683,8.683,0,0,1-1.029.482c-3.1-1.22-4.972-4.012-5-6.053a2.088,2.088,0,0,1,1.319-2.123c1.757-.7,3.1,1.19,3.155,1.271a.533.533,0,0,0,.061.059.683.683,0,0,0,.984-.058C1097.321,883.89,1098.665,881.995,1100.421,882.7Z" transform="translate(-67.719 -58.832)" fill="#404040"/>
    <path id="Path_1094" data-name="Path 1094" d="M1073.308,811.927a.577.577,0,0,0,.2.036.46.46,0,0,0,.046-.007c.016,0,.03.007.046.007a.576.576,0,0,0,.2-.036c3.8-1.41,5.878-4.755,5.907-7.188a3.228,3.228,0,0,0-2.047-3.214,7.83,7.83,0,0,1-8.215,0,3.227,3.227,0,0,0-2.048,3.214C1067.431,807.171,1069.511,810.517,1073.308,811.927Zm-3.43-9.326c1.757-.7,3.1,1.19,3.156,1.271a.572.572,0,0,0,.107.1.566.566,0,0,0,.39.136.573.573,0,0,0,.549-.24c.014-.02,1.389-1.975,3.154-1.269a2.088,2.088,0,0,1,1.319,2.124c-.022,1.8-1.487,4.194-3.963,5.568a8.693,8.693,0,0,1-1.034.485c-3.1-1.22-4.971-4.011-5-6.053A2.089,2.089,0,0,1,1069.878,802.6Z" transform="translate(-50.688)" fill="#404040"/>
  </g>
</svg>
