<svg xmlns="http://www.w3.org/2000/svg" width="67.682" height="70.001" viewBox="0 0 67.682 70.001">
  <g id="Group_5869" data-name="Group 5869" transform="translate(-1404.452 -777.873)">
    <path id="Path_1046" data-name="Path 1046" d="M1490.735,862.312c-5.8,0-10.7-4.692-11.541-10.981a12.14,12.14,0,0,1-1.224-10.737l.022-.057a11.669,11.669,0,0,1,8.026-7.212,19.126,19.126,0,0,1,13.751,2.151,4.308,4.308,0,0,0,4.526.047.6.6,0,0,1,.93.433c.02.19.472,4.7-2.062,7.647a6.586,6.586,0,0,1-1.495,1.292,14.048,14.048,0,0,1,.735,4.517,14.477,14.477,0,0,1-.1,1.737C1501.524,857.513,1496.552,862.312,1490.735,862.312Zm-10.362-11.2c.742,5.727,5.148,10.006,10.362,10.006s9.673-4.346,10.375-10.109a13.166,13.166,0,0,0,.1-1.592,12.874,12.874,0,0,0-.617-3.966,8.641,8.641,0,0,1-2.87.589,18.214,18.214,0,0,1-6.88-1.2c-2.937-.959-5.06-1.653-8.3.891a5.794,5.794,0,0,0-2.206,5l.006.068c.007.065.014.129.022.193A.616.616,0,0,1,1480.373,851.108Zm9.641-17.059a15.19,15.19,0,0,0-3.7.438,10.473,10.473,0,0,0-7.2,6.48l-.017.045a11.025,11.025,0,0,0,.162,7.886,6.993,6.993,0,0,1,2.542-4.114c3.747-2.938,6.5-2.039,9.413-1.087a17.222,17.222,0,0,0,6.455,1.143,6.132,6.132,0,0,0,4.586-2.012,9.33,9.33,0,0,0,1.815-5.846,5.551,5.551,0,0,1-4.91-.476A18.287,18.287,0,0,0,1490.013,834.048Z" transform="translate(-51.752 -39.091)" fill="#404040"/>
    <path id="Path_1047" data-name="Path 1047" d="M1560.157,874.107a.6.6,0,0,1-.522-.892,13.609,13.609,0,0,0,1.417-8.1.6.6,0,1,1,1.188-.153,14.83,14.83,0,0,1-1.56,8.842A.6.6,0,0,1,1560.157,874.107Z" transform="translate(-110.235 -61.526)" fill="#404040"/>
    <path id="Path_1048" data-name="Path 1048" d="M1517.829,906.172h-3.637a2.077,2.077,0,0,1-2.075-2.075v-.043a2.077,2.077,0,0,1,2.075-2.075h3.637a2.077,2.077,0,0,1,2.075,2.075v.043A2.077,2.077,0,0,1,1517.829,906.172Zm-3.637-2.995a.878.878,0,0,0-.877.877v.043a.878.878,0,0,0,.877.877h3.637a.878.878,0,0,0,.877-.877v-.043a.878.878,0,0,0-.877-.877Z" transform="translate(-76.522 -88.204)" fill="#404040"/>
    <path id="Path_1049" data-name="Path 1049" d="M1457.135,866.067a.6.6,0,0,1-.6-.6V854.961a.6.6,0,0,1,.091-.317l13.116-20.949a7.845,7.845,0,0,0,1.121-5.221l-2.768-20.131a4.234,4.234,0,0,0-8.4,1.015l2.036,19.535a.6.6,0,0,1-.109.41l-10.327,14.387a.6.6,0,0,1-.486.249H1425.78a.6.6,0,0,1-.486-.249L1414.967,829.3a.6.6,0,0,1-.109-.41l2.036-19.535a4.234,4.234,0,0,0-8.4-1.015l-2.768,20.131a7.846,7.846,0,0,0,1.121,5.221l13.116,20.949a.6.6,0,0,1,.091.317v10.508a.6.6,0,0,1-1.2,0V855.133l-13.026-20.8a9.041,9.041,0,0,1-1.291-6.019l2.768-20.131a5.43,5.43,0,0,1,10.78,1.3l-2.013,19.308,10.015,13.953H1450.5l10.016-13.953-2.013-19.308a5.43,5.43,0,0,1,10.78-1.3l2.768,20.131a9.04,9.04,0,0,1-1.291,6.018l-13.026,20.8v10.336A.6.6,0,0,1,1457.135,866.067Z" transform="translate(0 -18.194)" fill="#404040"/>
    <g id="Group_5847" data-name="Group 5847" transform="translate(1422.399 777.873)">
      <path id="Path_1050" data-name="Path 1050" d="M1469.368,786.206a7.194,7.194,0,1,1,3.692-.936,2.824,2.824,0,0,0-2.91.827A2.858,2.858,0,0,1,1469.368,786.206Zm.836-7.134a1.672,1.672,0,0,0-1.608,2.127.677.677,0,0,1,.039.092.6.6,0,0,1-.221.688,1.663,1.663,0,1,0,2.36,2.244.6.6,0,0,1,.771-.219,1.662,1.662,0,1,0,.828-3.149.6.6,0,0,1-.55-.471c-.007-.034-.013-.067-.017-.1a1.67,1.67,0,0,0-1.6-1.21Z" transform="translate(-1466.5 -777.873)" fill="#404040"/>
      <path id="Path_1051" data-name="Path 1051" d="M1480.658,815.813a.6.6,0,0,1-.521-.3l-2.355-4.122a.6.6,0,1,1,1.04-.594l2.355,4.121a.6.6,0,0,1-.52.9Z" transform="translate(-1474.458 -801.042)" fill="#404040"/>
      <path id="Path_1052" data-name="Path 1052" d="M1492.262,810.3a.6.6,0,0,1-.561-.389l-1.766-4.71a.6.6,0,1,1,1.122-.421l1.766,4.71a.6.6,0,0,1-.561.81Z" transform="translate(-1483.118 -796.712)" fill="#404040"/>
      <path id="Path_1053" data-name="Path 1053" d="M1479.131,786.282a.6.6,0,0,1-.5-.925,2.8,2.8,0,0,1,2.358-1.283.6.6,0,0,1,0,1.2,1.6,1.6,0,0,0-1.352.736A.6.6,0,0,1,1479.131,786.282Z" transform="translate(-1475.047 -782.277)" fill="#404040"/>
    </g>
    <g id="Group_5848" data-name="Group 5848" transform="translate(1445.322 777.874)">
      <path id="Path_1054" data-name="Path 1054" d="M1555.32,786.208a4.61,4.61,0,0,0-3.692-.936,4.2,4.2,0,1,1,3.692.936Zm-1.912-2.264a.6.6,0,0,1,.508.28,1.662,1.662,0,1,0,2.359-2.244.6.6,0,0,1-.22-.691c.012-.033.025-.064.038-.095a1.669,1.669,0,0,0-3.212-.906.694.694,0,0,1-.016.1.6.6,0,0,1-.55.468,1.663,1.663,0,1,0,.828,3.149A.6.6,0,0,1,1553.407,783.944Zm-1.127-3.686h0Zm0,0h0Z" transform="translate(-1548.444 -777.876)" fill="#404040"/>
      <path id="Path_1055" data-name="Path 1055" d="M1556.512,815.813a.6.6,0,0,1-.519-.9l2.355-4.121a.6.6,0,0,1,1.04.594l-2.355,4.122A.6.6,0,0,1,1556.512,815.813Z" transform="translate(-1552.97 -801.043)" fill="#404040"/>
      <path id="Path_1056" data-name="Path 1056" d="M1546.351,810.3a.6.6,0,0,1-.561-.81l1.766-4.71a.6.6,0,0,1,1.122.421l-1.766,4.71A.6.6,0,0,1,1546.351,810.3Z" transform="translate(-1545.752 -796.712)" fill="#404040"/>
      <path id="Path_1057" data-name="Path 1057" d="M1559.475,786.282a.6.6,0,0,1-.5-.274,1.605,1.605,0,0,0-1.352-.736.6.6,0,0,1,0-1.2,2.8,2.8,0,0,1,2.358,1.283.6.6,0,0,1-.5.925Z" transform="translate(-1553.756 -782.278)" fill="#404040"/>
    </g>
    <path id="Path_1058" data-name="Path 1058" d="M1434.678,932.785a.6.6,0,0,1-.074-1.193h0a13.209,13.209,0,0,0,8.839-6.053.6.6,0,0,1,1.027.617,14.18,14.18,0,0,1-9.718,6.624A.6.6,0,0,1,1434.678,932.785Z" transform="translate(-21.044 -104.745)" fill="#404040"/>
    <path id="Path_1059" data-name="Path 1059" d="M1582.807,932.371a.625.625,0,0,1-.073,0,14.147,14.147,0,0,1-9.719-6.615.6.6,0,0,1,1.027-.617,13.115,13.115,0,0,0,8.837,6.043.6.6,0,0,1-.072,1.194Z" transform="translate(-119.762 -104.458)" fill="#404040"/>
  </g>
</svg>
