<svg xmlns="http://www.w3.org/2000/svg" width="69.999" height="68.203" viewBox="0 0 69.999 68.203">
  <g id="Group_5867" data-name="Group 5867" transform="translate(-187.866 -275.236)">
    <path id="Path_1019" data-name="Path 1019" d="M283.735,320.844c0-.006-.011-.012-.016-.018l.019.03Z" transform="translate(-70.226 -33.341)" fill="#404040"/>
    <path id="Path_1020" data-name="Path 1020" d="M189.031,402.146v-9.238H253.82v9.238a.583.583,0,1,0,1.165,0V371.058a.583.583,0,1,0-1.165,0v9.932c-.411-1.353-2.2-5.668-8.919-8.737-5.929-2.709-18.888-4.7-24.7-3.821a2.779,2.779,0,0,0-2.9-1.1l-3.084.732a17.507,17.507,0,0,1-1.835-6.139,5.953,5.953,0,0,0-11.867.756,22.756,22.756,0,0,0,1.1,6.7,23.394,23.394,0,0,0-9.62-9.206V357.9a2.039,2.039,0,1,0-4.078,0v23.338a.578.578,0,0,0-.057.245v20.662a.583.583,0,1,0,1.165,0ZM220.7,370.335a2.757,2.757,0,0,0-.031-.787c5.686-.723,18.184,1.227,23.754,3.772,6.336,2.9,7.967,6.987,8.294,8.048H210.179c.094-.3.222-.688.383-1.134.024-.023.054-.036.074-.063a.582.582,0,0,0,.1-.406,24.243,24.243,0,0,1,3.047-5.723l1.309-.346,3.559-.941A2.8,2.8,0,0,0,220.7,370.335Zm-17.655-11.071a4.853,4.853,0,0,1,.465-.412,4.783,4.783,0,0,1,7.719,3.2,18.651,18.651,0,0,0,1.827,6.293l-1.352.321-3.138-5.257-.082-.137a.58.58,0,0,0-.8-.2.588.588,0,0,0-.2.8l3.439,5.76a.58.58,0,0,0,.633.268l.86-.2a1.689,1.689,0,0,0,.228-.054l4.93-1.171a1.622,1.622,0,0,1,.782,3.149l-7.007,1.854a1.916,1.916,0,0,1-2.13-.852l-4.233-6.849a.58.58,0,0,0-.8-.188.588.588,0,0,0-.188.807l4.233,6.849a3.074,3.074,0,0,0,2.62,1.471,3.112,3.112,0,0,0,.8-.1l.406-.107a26.318,26.318,0,0,0-2.212,4.343,20.282,20.282,0,0,1-8.153-16.18A4.714,4.714,0,0,1,203.041,359.264Zm.918,15a22.663,22.663,0,0,0,5.443,5.728c-.207.587-.352,1.055-.444,1.374h-3.585a.564.564,0,0,0,.112-.063.589.589,0,0,0,.209-.52A30.767,30.767,0,0,0,203.96,374.265Zm.424,5.713c-.3-.113-.6-.234-.888-.357-9.468-4.033-11.16-13.351-11.445-17.28-.023-.32-.038-.609-.046-.852C201.175,366.4,203.787,376.8,204.384,379.979ZM192,368.024a19.444,19.444,0,0,0,12.82,13.344H192ZM189.088,357.9a.874.874,0,1,1,1.748,0v2.635c0,.046,0,.2,0,.452v20.38h-1.748Zm-.057,24.638H253.82v9.2H189.031Z" transform="translate(0 -59.292)" fill="#404040"/>
    <path id="Path_1021" data-name="Path 1021" d="M247.7,321.619a6.049,6.049,0,0,0,5.265-9.044l-.019-.03a6.055,6.055,0,1,0-5.246,9.074Zm0-10.945a4.971,4.971,0,0,1,.539.031,4.874,4.874,0,1,1-.539-.031Z" transform="translate(-39.416 -25.06)" fill="#404040"/>
    <path id="Path_1022" data-name="Path 1022" d="M369.664,277.143q-.361-.187-.733-.352a13.417,13.417,0,1,0,.733.352Zm-2.772,23.594a12.188,12.188,0,1,1,8.843-11.718A12.141,12.141,0,0,1,366.892,300.737Z" transform="translate(-119.04 -0.303)" fill="#404040"/>
    <path id="Path_1023" data-name="Path 1023" d="M398.333,286.256a.586.586,0,0,0,.586-.586v-2.383a.586.586,0,0,0-1.171,0v2.383A.586.586,0,0,0,398.333,286.256Z" transform="translate(-153.836 -5.46)" fill="#404040"/>
    <path id="Path_1024" data-name="Path 1024" d="M398.333,352.092a.586.586,0,0,0-.586.585v2.383a.586.586,0,0,0,1.171,0v-2.383A.586.586,0,0,0,398.333,352.092Z" transform="translate(-153.836 -56.314)" fill="#404040"/>
    <path id="Path_1025" data-name="Path 1025" d="M428.008,322.417a.586.586,0,0,0,.586.586h2.383a.586.586,0,0,0,0-1.171h-2.383A.586.586,0,0,0,428.008,322.417Z" transform="translate(-175.967 -34.077)" fill="#404040"/>
    <path id="Path_1026" data-name="Path 1026" d="M361.587,321.832H359.2a.586.586,0,1,0,0,1.171h2.383a.586.586,0,1,0,0-1.171Z" transform="translate(-125.113 -34.077)" fill="#404040"/>
    <path id="Path_1027" data-name="Path 1027" d="M294.931,279.482a.549.549,0,0,0,.054.105.5.5,0,0,0,.024.046c.012.016.031.021.044.035a.551.551,0,0,0,.048.057,6.794,6.794,0,0,1,2,3.16.537.537,0,0,0,.035.073.548.548,0,0,0,.034.071.579.579,0,0,0,.1.118c.013.012.023.027.038.038a.579.579,0,0,0,.188.1l.01,0a.566.566,0,0,0,.157.022h.008a.564.564,0,0,0,.157-.022l.01-.005a.585.585,0,0,0,.188-.1.482.482,0,0,0,.038-.04.908.908,0,0,0,.167-.26,6.865,6.865,0,0,1,2-3.161.646.646,0,0,0,.047-.056c.013-.013.031-.019.043-.034a.433.433,0,0,0,.024-.046.566.566,0,0,0,.054-.106.538.538,0,0,0,.032-.1.673.673,0,0,0,0-.221.666.666,0,0,0-.087-.209c-.01-.015-.012-.032-.024-.046a.6.6,0,0,0-.05-.042.56.56,0,0,0-.042-.05,6.794,6.794,0,0,1-2-3.16.576.576,0,0,0-.03-.057.57.57,0,0,0-.055-.105.55.55,0,0,0-.071-.085.526.526,0,0,0-.191-.125.513.513,0,0,0-.056-.029c-.015,0-.029,0-.043,0a.562.562,0,0,0-.119-.009.584.584,0,0,0-.115.009c-.015,0-.03,0-.045,0a.516.516,0,0,0-.058.03.6.6,0,0,0-.1.054.552.552,0,0,0-.086.072.546.546,0,0,0-.07.083.572.572,0,0,0-.055.106.519.519,0,0,0-.029.057,6.863,6.863,0,0,1-2,3.161.546.546,0,0,0-.042.051.585.585,0,0,0-.048.04.507.507,0,0,0-.024.046.574.574,0,0,0-.055.106.587.587,0,0,0-.032.1.691.691,0,0,0,0,.221A.57.57,0,0,0,294.931,279.482Zm2.735-2.1a8.151,8.151,0,0,0,1.348,1.889,8.242,8.242,0,0,0-1.348,1.89,8.263,8.263,0,0,0-.858-1.328c-.178-.224-.345-.41-.49-.562A8.247,8.247,0,0,0,297.666,277.379Z" transform="translate(-78.422)" fill="#404040"/>
    <path id="Path_1028" data-name="Path 1028" d="M189.876,285.713a.569.569,0,0,0,.051.1.523.523,0,0,0,.025.049c.012.015.031.021.044.035a.523.523,0,0,0,.046.055,6.426,6.426,0,0,1,1.872,2.955.549.549,0,0,0,.035.073.576.576,0,0,0,.034.072.587.587,0,0,0,.1.117c.013.012.023.028.038.039a.581.581,0,0,0,.188.1l.01.005a.578.578,0,0,0,.157.022h.008a.574.574,0,0,0,.157-.022l.009-.005a.584.584,0,0,0,.188-.1c.014-.012.024-.026.038-.039a.587.587,0,0,0,.1-.117.6.6,0,0,0,.034-.071.545.545,0,0,0,.035-.073,6.424,6.424,0,0,1,1.872-2.955.568.568,0,0,0,.047-.056c.013-.013.031-.019.043-.034s.014-.031.024-.046a.539.539,0,0,0,.054-.106.554.554,0,0,0,.033-.1.579.579,0,0,0,.009-.11.5.5,0,0,0-.041-.214.575.575,0,0,0-.054-.105c-.01-.015-.013-.032-.024-.046a.551.551,0,0,0-.05-.042.561.561,0,0,0-.042-.05,6.35,6.35,0,0,1-1.871-2.954.561.561,0,0,0-.03-.057.52.52,0,0,0-.125-.19.556.556,0,0,0-.085-.071.578.578,0,0,0-.105-.054.619.619,0,0,0-.058-.03c-.015,0-.03,0-.044,0a.565.565,0,0,0-.117-.009.54.54,0,0,0-.114.009.433.433,0,0,0-.046,0,.583.583,0,0,0-.059.031.577.577,0,0,0-.1.053.647.647,0,0,0-.156.155.582.582,0,0,0-.056.107.565.565,0,0,0-.029.056,6.42,6.42,0,0,1-1.872,2.955.536.536,0,0,0-.044.052c-.014.015-.032.022-.045.038s-.013.03-.023.044a.562.562,0,0,0-.059.113.573.573,0,0,0-.029.094.591.591,0,0,0-.01.121.572.572,0,0,0,.008.1A.559.559,0,0,0,189.876,285.713Zm2.6-1.919a7.8,7.8,0,0,0,1.221,1.7,7.8,7.8,0,0,0-1.221,1.7,7.776,7.776,0,0,0-.711-1.1,7.63,7.63,0,0,0-.509-.6A7.774,7.774,0,0,0,192.478,283.794Z" transform="translate(-1.438 -4.705)" fill="#404040"/>
    <path id="Path_1029" data-name="Path 1029" d="M423.953,382.73c.035,0,.069.01.105.01a2.316,2.316,0,0,0,2.314-2.314,2.266,2.266,0,0,0-.027-.265,2.3,2.3,0,1,0-2.392,2.568Zm.105-3.446a1.138,1.138,0,1,1-1.142,1.142A1.136,1.136,0,0,1,424.058,379.284Z" transform="translate(-171.386 -75.382)" fill="#404040"/>
    <path id="Path_1030" data-name="Path 1030" d="M205.2,333.546a2.61,2.61,0,0,0,2.351,2.576,2.5,2.5,0,0,0,.251.026,2.6,2.6,0,0,0,2.55-3.116,2.663,2.663,0,0,0-2.55-2.088A2.6,2.6,0,0,0,205.2,333.546Zm2.6-1.43a1.428,1.428,0,0,1,1.35.976,1.408,1.408,0,0,1,.081.454,1.432,1.432,0,0,1-1.431,1.431,1.41,1.41,0,0,1-.71-.2,1.426,1.426,0,0,1,.71-2.665Z" transform="translate(-12.675 -40.82)" fill="#404040"/>
    <path id="Path_1031" data-name="Path 1031" d="M324.949,352.176a.562.562,0,0,0,.051.1c.01.016.013.034.025.049s.031.021.044.035a.571.571,0,0,0,.046.056,6.428,6.428,0,0,1,1.873,2.955,90.757,90.757,0,0,0,.068.144.58.58,0,0,0,.1.118c.013.012.023.027.038.038a.584.584,0,0,0,.188.1l.01,0a.568.568,0,0,0,.157.022h.008a.57.57,0,0,0,.157-.022l.009,0a.581.581,0,0,0,.188-.1.507.507,0,0,0,.038-.038.457.457,0,0,0,.132-.188.569.569,0,0,0,.035-.073,6.425,6.425,0,0,1,1.872-2.955.5.5,0,0,0,.047-.057c.013-.013.031-.019.044-.034s.014-.031.024-.046a.565.565,0,0,0,.054-.106.572.572,0,0,0,.032-.1.557.557,0,0,0,.009-.11.5.5,0,0,0-.041-.214.567.567,0,0,0-.054-.106c-.01-.014-.012-.032-.024-.046a.52.52,0,0,0-.05-.042.582.582,0,0,0-.042-.05,6.346,6.346,0,0,1-1.871-2.954.557.557,0,0,0-.03-.057.579.579,0,0,0-.055-.105.563.563,0,0,0-.072-.085.512.512,0,0,0-.192-.126c-.019-.008-.034-.022-.054-.028s-.029,0-.043,0a.569.569,0,0,0-.119-.009.576.576,0,0,0-.116.009c-.015,0-.029,0-.044,0a.526.526,0,0,0-.056.029.565.565,0,0,0-.107.055.572.572,0,0,0-.084.071.553.553,0,0,0-.071.084.574.574,0,0,0-.055.106.515.515,0,0,0-.029.057,6.422,6.422,0,0,1-1.873,2.955c-.018.015-.027.036-.044.052a.536.536,0,0,0-.045.038c-.011.013-.013.03-.023.044a.568.568,0,0,0-.059.113.51.51,0,0,0-.04.216.573.573,0,0,0,.008.1A.56.56,0,0,0,324.949,352.176Zm2.6-1.919a7.8,7.8,0,0,0,1.221,1.7,7.8,7.8,0,0,0-1.221,1.7,7.811,7.811,0,0,0-1.22-1.7A7.776,7.776,0,0,0,327.551,350.257Z" transform="translate(-100.416 -53.419)" fill="#404040"/>
    <path id="Path_1032" data-name="Path 1032" d="M394.166,310.1a3.177,3.177,0,1,0-.454,4.434l3.281,3.75.476.544a.586.586,0,0,0,.881-.772l-1.09-1.246-2.791-3.19a3.167,3.167,0,0,0,.249-2.49h0l2.455-1.289,1.594-.837a.586.586,0,0,0-.545-1.037l-1.3.683-2.748,1.443Zm-2.477,3.992a1.978,1.978,0,0,1-.6-.1,1.98,1.98,0,1,1,.6.1Z" transform="translate(-147.082 -23.884)" fill="#404040"/>
  </g>
</svg>
