<svg xmlns="http://www.w3.org/2000/svg" width="49.216" height="70" viewBox="0 0 49.216 70">
  <g id="Group_5872" data-name="Group 5872" transform="translate(-178.24 -789.674)">
    <path id="Path_1073" data-name="Path 1073" d="M213.254,995.311v0h0Z" transform="translate(-26.215 -154.141)" fill="#404040"/>
    <path id="Path_1074" data-name="Path 1074" d="M306.169,982.581l-.858-.051-.025.129,1.078,4.033Z" transform="translate(-95.235 -144.574)" fill="#404040"/>
    <path id="Path_1075" data-name="Path 1075" d="M370.983,815.392c.011-.065.014-.132.023-.2-.022.081-.041.164-.066.244C370.955,815.424,370.967,815.407,370.983,815.392Z" transform="translate(-144.449 -19.109)" fill="#404040"/>
    <path id="Path_1076" data-name="Path 1076" d="M272.337,949a3.143,3.143,0,0,0-2.4,1.107.548.548,0,0,0,.834.71,2.051,2.051,0,0,1,3.149.029.534.534,0,0,0,.154.12.521.521,0,0,0,.617-.043.548.548,0,0,0,.076-.771l-.026-.029A3.134,3.134,0,0,0,272.337,949Z" transform="translate(-68.649 -119.435)" fill="#404040"/>
    <path id="Path_1077" data-name="Path 1077" d="M236.3,925.106l-8.3-11.495a6.27,6.27,0,0,0-5.068-2.6H206.1l-1.429-1.578a.531.531,0,0,0-.086-.155.538.538,0,0,0-.179-.137l-1.535-1.7,3.552-3.037a8.769,8.769,0,0,0,16.967-3.15v-5.33a7.321,7.321,0,0,0-7.3-7.326H213.32a7.3,7.3,0,0,0-7.11,5.692,4.149,4.149,0,0,0-1.83.88l-8.57,7.169a7.148,7.148,0,0,0-1.3,9.585l6.748,9.784c.011.016.027.024.039.038v11.682a.546.546,0,1,0,1.091,0V921.361a.539.539,0,0,0-.406-.519l-3.741-5.424v0h0l5.845-4.989,1.365,1.507a.545.545,0,0,0,.4.179h14.353l-.152.792-2.326,12.117h-2.449a4.334,4.334,0,0,0-2.4,7.932,4.282,4.282,0,0,0,2.4.733h1.323c.006,0,.011.006.017.007a.582.582,0,0,0,.1.01.525.525,0,0,0,.094-.017h15.116a5.409,5.409,0,0,0,4.36-8.579Zm-14-23.843a7.7,7.7,0,0,1-7.682,7.71,7.613,7.613,0,0,1-3.507-.861,7.721,7.721,0,0,1-3.793-4.463l2.432-2.079a4.148,4.148,0,0,0,1.456-2.937,4.193,4.193,0,0,0-.158-1.4,24.908,24.908,0,0,1,7.382.109,29.843,29.843,0,0,1,3.8.86.548.548,0,0,0,.074.011Zm-.338-7.34a6.208,6.208,0,0,1,.338,2.01v1.149a30.693,30.693,0,0,0-4.055-.878,25.694,25.694,0,0,0-7.654-.014,4.24,4.24,0,0,0-.489-.645,4.31,4.31,0,0,0-.337-.32,20.763,20.763,0,0,1,7.75-1.628,23.282,23.282,0,0,1,4.371.329A.516.516,0,0,0,221.958,893.923Zm-2.664-3.316a6.261,6.261,0,0,1,2.122,2.145,24.136,24.136,0,0,0-4.346-.233,22.721,22.721,0,0,0-3.117.333.5.5,0,0,0-.076-.052l-.01-.007-.007,0c-.19-.082-.372-.153-.554-.225a16.431,16.431,0,0,1,3.061-1.408,9.8,9.8,0,0,1,2.9-.542C219.278,890.613,219.286,890.609,219.294,890.608Zm-5.974-.905h2.767a6.162,6.162,0,0,1,1.04.094,13.292,13.292,0,0,0-1.36.4,17.727,17.727,0,0,0-3.793,1.9,10.947,10.947,0,0,0-3.117-.5A6.191,6.191,0,0,1,213.32,889.7Zm-5.358,3.079a7.759,7.759,0,0,1,3.709.373.538.538,0,0,0,.328.135,20.122,20.122,0,0,0-3.355,1.241,4.124,4.124,0,0,0-1.295-.307A6.181,6.181,0,0,1,207.962,892.782Zm-7.615,19.4-2.73,2.331-2.208-3.2a6.055,6.055,0,0,1,1.1-8.119l8.571-7.169a3.055,3.055,0,0,1,3.6-.247,3.1,3.1,0,0,1,1.437,2.8,3.06,3.06,0,0,1-1.075,2.167l-7.307,6.247a.549.549,0,0,0-.05.786l1.672,1.845Zm26.764,2.075,3.28,4.541-2.592,1.561-2.752-7.777A5.169,5.169,0,0,1,227.111,914.254Zm-13.169,18.039a3.231,3.231,0,0,1-1.409-4.624l1.441,4.469Zm-.56-5.55a3.2,3.2,0,0,1,1.859-.626l-.814,3.869Zm2.9,5.846H215.26c0-.012,0-.023,0-.035l-.153-.474,1.255-5.964h1.164Zm10.394,0H217.39l3.888-20.256.025-.129.855.05.194,4.112.024.5a.568.568,0,0,0,.545.522h.026a.547.547,0,0,0,.519-.573l-.212-4.5.555.033,3.107,8.782a.539.539,0,0,0,.065.355.553.553,0,0,0,.105.125l3.883,10.976Zm5.452-.01-3.953-11.17,2.863-1.724,4.379,6.063a4.31,4.31,0,0,1-3.289,6.831Z" transform="translate(-11.223 -74.31)" fill="#404040"/>
    <path id="Path_1078" data-name="Path 1078" d="M350.2,845.853a3.532,3.532,0,1,0,3.532,3.532A3.536,3.536,0,0,0,350.2,845.853Zm.544,5.9a2.43,2.43,0,1,1-.7-4.792c.051,0,.1-.016.152-.016a2.434,2.434,0,0,1,.544,4.807Z" transform="translate(-126.277 -42.117)" fill="#404040"/>
    <path id="Path_1079" data-name="Path 1079" d="M225.323,790.672a6.775,6.775,0,0,1,.518,3.271c-.345,4.057-2.962,7.206-6.513,7.836a.547.547,0,0,0-.447.6,7.117,7.117,0,0,1-7.071,7.993,7.073,7.073,0,0,1-3.929-1.188.544.544,0,0,0-.75.144,5.975,5.975,0,0,1-4.909,2.583,5.88,5.88,0,0,1-1.62-.237,6,6,0,0,1-3.228-2.265.545.545,0,0,0-.722-.151,7.875,7.875,0,0,1-11.91-6.824c0-.01,0-.071,0-.081a.547.547,0,0,0-.45-.547,6,6,0,0,1-4.766-4.894c-.431-2.085-.26-4.827,1.512-6.269a.548.548,0,0,0,.081-.768v0a.544.544,0,0,0-.768-.08c-2.153,1.752-2.39,4.942-1.894,7.342a7.2,7.2,0,0,0,5.194,5.653,8.964,8.964,0,0,0,13.132,7.648,7.039,7.039,0,0,0,10.93-.068,8.155,8.155,0,0,0,4.094,1.1,8.24,8.24,0,0,0,8.217-8.245c0-.151-.005-.307-.016-.471a9.09,9.09,0,0,0,6.482-6.425c.024-.08.043-.163.065-.244a11.268,11.268,0,0,0,.371-2.049,7.814,7.814,0,0,0-.594-3.777c-.024-.059-.044-.106-.056-.14a.551.551,0,0,0-.573-.444.551.551,0,0,0-.506.569c0,.005,0,.01,0,.015A1.318,1.318,0,0,0,225.323,790.672Z" fill="#404040"/>
    <path id="Path_1080" data-name="Path 1080" d="M345.708,881.579a2.343,2.343,0,1,0-1.9,3.741h.011a2.354,2.354,0,0,0,2.351-2.352c0-.053-.012-.1-.016-.155A2.329,2.329,0,0,0,345.708,881.579Zm-1.886,2.646a1.256,1.256,0,1,1,1.256-1.256A1.258,1.258,0,0,1,343.821,884.226Z" transform="translate(-122.383 -68.177)" fill="#404040"/>
    <path id="Path_1081" data-name="Path 1081" d="M321.471,899.333c.011,0,.02,0,.031,0a1.841,1.841,0,1,0-.751-.166A1.808,1.808,0,0,0,321.471,899.333Zm.031-2.559a.733.733,0,1,1-.733.734A.734.734,0,0,1,321.5,896.774Z" transform="translate(-106.026 -79.466)" fill="#404040"/>
    <path id="Path_1082" data-name="Path 1082" d="M232.611,811.938a4.118,4.118,0,0,0-3.442-4.048v-1.7a.547.547,0,0,0-.548-.547h-1.643v-1.1a.547.547,0,0,0-.161-.387l-2.464-2.464a.547.547,0,0,0-.387-.161H214.93a.548.548,0,0,0-.548.548v.822H210a.548.548,0,0,0-.548.548V804H203.43v-.547a.548.548,0,0,0-.548-.548h-3.833a.548.548,0,0,0-.548.548v2.191a.547.547,0,0,0,.548.547h3.833a.547.547,0,0,0,.548-.547v-.548h6.024v1.1a.548.548,0,0,0,.548.548h1.964l-.708.708a.545.545,0,0,0-.159.393,4.105,4.105,0,0,0,.116,8.209H228.5a4.119,4.119,0,0,0,4.107-4.107Zm-30.277-6.846H199.6V804h2.738Zm25.739,1.643v1.1H212.419l1.1-1.1Zm-16.815-1.1h-.709V804h4.381a.548.548,0,0,0,.548-.547v-.822h8.262l.637.637,1.507,1.507v.869H211.258Zm17.246,9.31h-17.29a3.012,3.012,0,1,1,0-6.024H228.5a3.012,3.012,0,1,1,0,6.024Z" transform="translate(-15.17 -8.88)" fill="#404040"/>
    <path id="Path_1083" data-name="Path 1083" d="M246.972,834.7a2.073,2.073,0,1,0,2.073,2.073A2.075,2.075,0,0,0,246.972,834.7Zm0,3.051a.978.978,0,1,1,.978-.978A.979.979,0,0,1,246.972,837.749Z" transform="translate(-49.972 -33.752)" fill="#404040"/>
    <path id="Path_1084" data-name="Path 1084" d="M277.333,834.7a2.073,2.073,0,1,0,2.073,2.073A2.076,2.076,0,0,0,277.333,834.7Zm0,3.051a.978.978,0,1,1,.978-.978A.979.979,0,0,1,277.333,837.749Z" transform="translate(-72.733 -33.752)" fill="#404040"/>
    <path id="Path_1085" data-name="Path 1085" d="M307.693,834.7a2.073,2.073,0,1,0,2.073,2.073A2.076,2.076,0,0,0,307.693,834.7Zm0,3.051a.978.978,0,1,1,.978-.978A.979.979,0,0,1,307.693,837.749Z" transform="translate(-95.492 -33.752)" fill="#404040"/>
  </g>
</svg>
