<svg xmlns="http://www.w3.org/2000/svg" width="49.857" height="71.239" viewBox="0 0 49.857 71.239">
  <g id="Group_5769" data-name="Group 5769" transform="translate(-191.185 -216.505)">
    <path id="Path_968" data-name="Path 968" d="M238.018,283.41h-43.81a2.525,2.525,0,0,1-2.523-2.521V225.773a2.526,2.526,0,0,1,2.523-2.524H204.3v2.271h23.824v-2.271h9.892a2.527,2.527,0,0,1,2.524,2.524v55.116A2.526,2.526,0,0,1,238.018,283.41Zm-43.81-58.547a.921.921,0,0,0-.909.91v55.116a.919.919,0,0,0,.909.907h43.81a.92.92,0,0,0,.91-.907V225.773a.922.922,0,0,0-.91-.91H229.74v2.271H202.688v-2.271Z" transform="translate(0 3.834)" fill="#fff" stroke="#fff" stroke-width="1"/>
    <path id="Path_969" data-name="Path 969" d="M223.94,230.968H200.116a1.616,1.616,0,0,1-1.614-1.614v-5.8a1.616,1.616,0,0,1,1.614-1.614h5.609a6.443,6.443,0,0,1,12.515-.048l.008.048h5.693a1.616,1.616,0,0,1,1.614,1.614v5.8A1.616,1.616,0,0,1,223.94,230.968Zm-23.824-7.418v5.8H223.94v-5.8h-5.693a1.64,1.64,0,0,1-1.574-1.27,4.832,4.832,0,0,0-9.376,0,1.643,1.643,0,0,1-1.574,1.269Z" transform="translate(4.186 0)" fill="#fff" stroke="#fff" stroke-width="1"/>
    <path id="Path_970" data-name="Path 970" d="M232.394,276.154H195.5v-48.4h36.894Zm-35.28-1.614H230.78V229.366H197.114Z" transform="translate(2.342 6.599)" fill="#fff" stroke="#fff" stroke-width="1"/>
    <path id="Path_971" data-name="Path 971" d="M216.226,234.2H206.158a.807.807,0,1,1,0-1.614h10.068a.807.807,0,0,1,0,1.614Z" transform="translate(8.391 9.565)" fill="#fff" stroke="#fff" stroke-width="1"/>
    <path id="Path_972" data-name="Path 972" d="M216.226,242.641H206.158a.807.807,0,1,1,0-1.614h10.068a.807.807,0,0,1,0,1.614Z" transform="translate(8.391 14.749)" fill="#fff" stroke="#fff" stroke-width="1"/>
    <path id="Path_973" data-name="Path 973" d="M220.845,237.059H206.158a.807.807,0,1,1,0-1.614h14.687a.807.807,0,1,1,0,1.614Z" transform="translate(8.391 11.322)" fill="#fff" stroke="#fff" stroke-width="1"/>
    <path id="Path_974" data-name="Path 974" d="M220.845,245.315H206.158a.807.807,0,1,1,0-1.614h14.687a.807.807,0,1,1,0,1.614Z" transform="translate(8.391 16.391)" fill="#fff" stroke="#fff" stroke-width="1"/>
    <path id="Path_975" data-name="Path 975" d="M216.226,250.9H206.158a.807.807,0,1,1,0-1.614h10.068a.807.807,0,0,1,0,1.614Z" transform="translate(8.391 19.818)" fill="#fff" stroke="#fff" stroke-width="1"/>
    <path id="Path_976" data-name="Path 976" d="M220.845,253.571H206.158a.807.807,0,1,1,0-1.614h14.687a.807.807,0,1,1,0,1.614Z" transform="translate(8.391 21.46)" fill="#fff" stroke="#fff" stroke-width="1"/>
    <path id="Path_977" data-name="Path 977" d="M205.9,256.952h-6.133a1.262,1.262,0,0,1-1.261-1.261v-6.133a1.262,1.262,0,0,1,1.261-1.261H205.9a1.261,1.261,0,0,1,1.261,1.261v6.133A1.261,1.261,0,0,1,205.9,256.952Zm-5.78-1.614h5.426v-5.426h-5.426Z" transform="translate(4.186 19.213)" fill="#fff" stroke="#fff" stroke-width="1"/>
    <path id="Path_978" data-name="Path 978" d="M205.9,248.721h-6.133a1.264,1.264,0,0,1-1.261-1.262v-6.132a1.264,1.264,0,0,1,1.261-1.262H205.9a1.263,1.263,0,0,1,1.261,1.262v6.132A1.263,1.263,0,0,1,205.9,248.721Zm-5.78-1.614h5.426v-5.428h-5.426Z" transform="translate(4.186 14.158)" fill="#fff" stroke="#fff" stroke-width="1"/>
    <path id="Path_979" data-name="Path 979" d="M202.51,239.132a.793.793,0,0,1-.46-.145l-3.483-2.423a.806.806,0,1,1,.922-1.323l2.925,2.034,4.9-4.966a.807.807,0,0,1,1.149,1.135l-5.376,5.45A.8.8,0,0,1,202.51,239.132Z" transform="translate(4.013 9.249)" fill="#fff" stroke="#fff" stroke-width="1"/>
  </g>
</svg>
