<svg xmlns="http://www.w3.org/2000/svg" width="51.673" height="71.069" viewBox="0 0 51.673 71.069">
  <g id="Group_5775" data-name="Group 5775" transform="translate(-333.293 -7748.775)">
    <rect id="Rectangle_1674" data-name="Rectangle 1674" width="7.185" height="1.61" transform="matrix(0.68, -0.733, 0.733, 0.68, 334, 7814.001)" fill="#fff" stroke="#fff" stroke-width="1"/>
    <g id="Group_5768" data-name="Group 5768" transform="translate(334 7749.275)">
      <path id="Path_959" data-name="Path 959" d="M195.867,287.789H150.335a2.45,2.45,0,0,1-2.449-2.447V220.167a2.45,2.45,0,0,1,2.449-2.447h45.532a2.451,2.451,0,0,1,2.449,2.447v65.175A2.451,2.451,0,0,1,195.867,287.789ZM150.335,219.33a.839.839,0,0,0-.839.837v65.175a.839.839,0,0,0,.839.837h45.532a.839.839,0,0,0,.839-.837V220.167a.839.839,0,0,0-.839-.837Z" transform="translate(-147.886 -217.72)" fill="#fff" stroke="#fff" stroke-width="1"/>
      <path id="Path_960" data-name="Path 960" d="M180.953,224.941H157.3a2.452,2.452,0,0,1-2.449-2.447V217.72H183.4v4.774A2.45,2.45,0,0,1,180.953,224.941Zm-24.487-5.611v3.164a.839.839,0,0,0,.839.837h23.648a.838.838,0,0,0,.837-.837V219.33Z" transform="translate(-143.634 -217.72)" fill="#fff" stroke="#fff" stroke-width="1"/>
      <path id="Path_961" data-name="Path 961" d="M182.6,227.927H155.661a.805.805,0,1,1,0-1.61H182.6a.805.805,0,0,1,0,1.61Z" transform="translate(-143.634 -212.475)" fill="#fff" stroke="#fff" stroke-width="1"/>
      <path id="Path_962" data-name="Path 962" d="M182.6,230.948H155.661a.805.805,0,1,1,0-1.61H182.6a.805.805,0,0,1,0,1.61Z" transform="translate(-143.634 -210.632)" fill="#fff" stroke="#fff" stroke-width="1"/>
      <path id="Path_963" data-name="Path 963" d="M182.6,233.329H155.661a.805.805,0,1,1,0-1.61H182.6a.805.805,0,0,1,0,1.61Z" transform="translate(-143.634 -209.18)" fill="#fff" stroke="#fff" stroke-width="1"/>
      <path id="Path_964" data-name="Path 964" d="M182.6,235.943H155.661a.805.805,0,1,1,0-1.61H182.6a.805.805,0,0,1,0,1.61Z" transform="translate(-143.634 -207.585)" fill="#fff" stroke="#fff" stroke-width="1"/>
      <path id="Path_965" data-name="Path 965" d="M155.471,260.014a5.434,5.434,0,1,1,5.434-5.434A5.44,5.44,0,0,1,155.471,260.014Zm0-9.258a3.824,3.824,0,1,0,3.824,3.824A3.829,3.829,0,0,0,155.471,250.756Z" transform="translate(-146.575 -198.549)" fill="#fff" stroke="#fff" stroke-width="1"/>
      <path id="Path_966" data-name="Path 966" d="M165.054,250.2a5.435,5.435,0,1,1,5.434-5.434A5.44,5.44,0,0,1,165.054,250.2Zm0-9.259a3.825,3.825,0,1,0,3.824,3.825A3.829,3.829,0,0,0,165.054,240.938Z" transform="translate(-140.728 -204.538)" fill="#fff" stroke="#fff" stroke-width="1"/>
      <path id="Path_967" data-name="Path 967" d="M172.781,257.981a5.435,5.435,0,1,1,5.434-5.436A5.441,5.441,0,0,1,172.781,257.981Zm0-9.259a3.825,3.825,0,1,0,3.824,3.824A3.83,3.83,0,0,0,172.781,248.722Z" transform="translate(-136.015 -199.789)" fill="#fff" stroke="#fff" stroke-width="1"/>
      <rect id="Rectangle_1675" data-name="Rectangle 1675" width="12.896" height="1.61" transform="translate(11.915 52.628) rotate(-48.84)" fill="#fff" stroke="#fff" stroke-width="1"/>
      <rect id="Rectangle_1676" data-name="Rectangle 1676" width="1.609" height="8.496" transform="translate(27.448 43.463) rotate(-40.184)" fill="#fff" stroke="#fff" stroke-width="1"/>
      <rect id="Rectangle_1677" data-name="Rectangle 1677" width="16.308" height="1.61" transform="translate(38.934 48.592) rotate(-51.899)" fill="#fff" stroke="#fff" stroke-width="1"/>
    </g>
  </g>
</svg>
