<svg xmlns="http://www.w3.org/2000/svg" width="93.576" height="71.012" viewBox="0 0 93.576 71.012">
  <g id="Group_5774" data-name="Group 5774" transform="translate(-85.613 -49.848)">
    <path id="Path_1013" data-name="Path 1013" d="M149.978,111.591h-9.2a.807.807,0,0,1-.688-.386c-.069-.113-6.975-11.28-15.714-14.09-1.95.061-21.968.166-22.865-15.7A15.3,15.3,0,0,1,108.955,67c3.679-2.151,7.9-2.48,10.5-.819a5.947,5.947,0,0,1,2.516,5.919.808.808,0,0,1-1.609-.155,4.354,4.354,0,0,0-1.776-4.4c-2.105-1.344-5.649-1-8.817.852a13.527,13.527,0,0,0-6.649,12.933C103.97,96.32,123.6,95.536,124.447,95.5a.766.766,0,0,1,.28.036c8.533,2.658,15.145,12.345,16.5,14.444h7.412c-.987-2.033-2.642-6.255-1.706-10.236a.807.807,0,0,1,.559-.59c.494-.147,12.1-3.732,9.994-15.525a.808.808,0,0,1,1.592-.284c2.109,11.8-8.292,16.329-10.659,17.2-.837,4.645,2.223,9.776,2.256,9.829a.807.807,0,0,1-.69,1.225Z" transform="translate(9.028 8.768)" fill="#fff" stroke="#fff" stroke-width="1"/>
    <path id="Path_1014" data-name="Path 1014" d="M107.858,95.606c-4.634,0-10.457-.8-14.948-4.067-3.875-2.816-6.121-7.029-6.678-12.519-.9-8.874,3.668-15.76,13.206-19.915a.808.808,0,1,1,.645,1.482c-8.956,3.9-13.075,10.049-12.243,18.27.509,5.011,2.532,8.837,6.016,11.374,8.04,5.851,21.341,3.083,21.477,3.055a.807.807,0,0,1,.339,1.579A40.287,40.287,0,0,1,107.858,95.606Z" transform="translate(0 5.208)" fill="#fff" stroke="#fff" stroke-width="1"/>
    <path id="Path_1015" data-name="Path 1015" d="M97.685,73.931a.8.8,0,0,1-.667-.352c-.183-.268-4.445-6.625-2.411-12.479,1.168-3.364,4.153-5.82,8.869-7.3,15.76-4.946,21.186,2.252,21.409,2.561a.808.808,0,0,1-1.31.947c-.047-.063-5.057-6.536-19.614-1.966-4.2,1.318-6.835,3.434-7.827,6.289-1.771,5.095,2.178,10.979,2.218,11.038a.809.809,0,0,1-.667,1.264Z" transform="translate(4.888 1.053)" fill="#fff" stroke="#fff" stroke-width="1"/>
    <path id="Path_1016" data-name="Path 1016" d="M136.934,61.409a.807.807,0,0,1-.745-.5c-1.732-4.128-4.429-6.857-8.014-8.115-8.011-2.8-17.935,2.529-18.034,2.584a.808.808,0,0,1-.776-1.419c.431-.236,10.666-5.731,19.344-2.689,4.035,1.412,7.053,4.445,8.969,9.013a.808.808,0,0,1-.433,1.058A.785.785,0,0,1,136.934,61.409Z" transform="translate(13.808 0)" fill="#fff" stroke="#fff" stroke-width="1"/>
    <path id="Path_1017" data-name="Path 1017" d="M149.07,72.98a.807.807,0,0,1-.8-.735C146.691,54.783,125.227,54.028,124.314,54a.808.808,0,0,1-.787-.829.825.825,0,0,1,.827-.787c.239.006,23.817.811,25.521,19.711a.808.808,0,0,1-.732.877A.558.558,0,0,1,149.07,72.98Z" transform="translate(22.604 1.249)" fill="#fff" stroke="#fff" stroke-width="1"/>
    <path id="Path_1018" data-name="Path 1018" d="M140.206,93.813a.808.808,0,0,1-.131-1.606c11.08-1.823,10.659-14.322,10.637-14.852-.04-5.15-1.53-8.75-4.431-10.73-5.814-3.975-15.5-.354-15.592-.315a.808.808,0,0,1-.575-1.511c.43-.163,10.577-3.952,17.081.491,3.361,2.3,5.088,6.344,5.132,12.023.006.115.49,14.436-11.989,16.489A.728.728,0,0,1,140.206,93.813Z" transform="translate(26.34 7.699)" fill="#fff" stroke="#fff" stroke-width="1"/>
  </g>
</svg>
